<svg width="80" height="80" viewBox="0 0 80 80" fill="none" xmlns="http://www.w3.org/2000/svg">
<rect width="80" height="80" rx="40" fill="#D7DAFC"/>
<path d="M53.3333 56.6667H30.8333C29.2862 56.6667 27.8025 56.0521 26.7085 54.9581C25.6146 53.8642 25 52.3804 25 50.8333V28.3333C25 27.0072 25.5268 25.7355 26.4645 24.7978C27.4021 23.8601 28.6739 23.3333 30 23.3333H53.3333C53.7754 23.3333 54.1993 23.5089 54.5118 23.8215C54.8244 24.134 55 24.558 55 25V55C55 55.442 54.8244 55.8659 54.5118 56.1785C54.1993 56.4911 53.7754 56.6667 53.3333 56.6667ZM51.6667 53.3333V48.3333H30.8333C30.1703 48.3333 29.5344 48.5967 29.0656 49.0656C28.5967 49.5344 28.3333 50.1703 28.3333 50.8333C28.3333 51.4964 28.5967 52.1323 29.0656 52.6011C29.5344 53.0699 30.1703 53.3333 30.8333 53.3333H51.6667Z" fill="#284AB8"/>
</svg>
