<svg width="146" height="195" viewBox="0 0 146 195" fill="none" xmlns="http://www.w3.org/2000/svg">
<path d="M46.1348 17.5201C46.1348 17.5201 42.9452 40.0399 46.1348 57.8173C49.3243 75.5948 52.3455 86.7042 50.7446 94.5518L55.8961 95.936C55.8961 95.936 58.0626 90.8687 57.87 87.1496C57.87 87.1496 58.5802 93.6852 57.87 95.936C57.1599 98.1867 57.87 96.8146 57.87 96.8146C57.87 96.8146 79.8 98.8487 91.9205 95.936C104.041 93.0232 93.1241 28.449 93.1241 28.449C93.1241 28.449 62.2392 14.0657 46.1348 17.5201Z" fill="#263238"/>
<path d="M28.1045 68.5295L25.0232 60.4773C25.0232 60.4773 26.4676 55.3379 24.7584 53.5324C23.0493 51.727 13.1074 46.8884 11.5186 47.0088C9.92982 47.1292 6.40321 52.7621 6.96891 55.4341C7.53462 58.1062 17.97 62.6559 17.97 62.6559L20.8226 71.3701L28.1045 68.5295Z" fill="#EBB376"/>
<path d="M61.842 79.2177C61.842 79.2177 58.2311 81.1314 53.3324 83.4063C45.7496 86.957 35.2059 91.3863 30.8247 90.8206C23.603 89.8938 17.5006 65.9418 17.5006 65.9418L26.1907 60.9227C26.1907 60.9227 31.5348 71.7552 35.0133 75.5105C38.4918 79.2658 45.4366 68.5657 55.2822 63.5345L58.7607 71.8395L61.842 79.2177Z" fill="#407BFF"/>
<path opacity="0.2" d="M61.842 79.2177C61.842 79.2177 58.2311 81.1314 53.3324 83.4062C53.5659 78.9907 55.5135 74.8407 58.7607 71.8395L61.842 79.2177Z" fill="black"/>
<path d="M68.6304 172.137L87.5272 187.856C87.5272 187.856 58.7487 199.05 28.7906 191.19C26.3798 190.568 24.0017 189.824 21.6652 188.964C-10.6641 177.024 53.2241 126.761 53.2241 126.761L84.5182 137.437L90.9575 139.627L68.6304 172.137Z" fill="#263238"/>
<path opacity="0.2" d="M68.6304 172.137L87.5272 187.856C87.5272 187.856 58.7487 199.05 28.7906 191.19C27.6424 189.313 27.1003 187.128 27.2379 184.932C28.285 167.323 68.6304 137.365 68.6304 137.365C73.923 137.072 79.2284 137.096 84.5182 137.437L90.9575 139.627L68.6304 172.137Z" fill="black"/>
<path d="M132.025 186.773C132.08 187.009 132.067 187.256 131.985 187.484C131.904 187.713 131.759 187.913 131.568 188.061C131.466 188.173 131.338 188.258 131.195 188.309C131.052 188.359 130.899 188.373 130.749 188.35C129.413 188.109 127.969 184.896 127.812 184.522C127.792 184.483 127.782 184.44 127.782 184.396C127.782 184.352 127.792 184.309 127.812 184.27C127.843 184.235 127.884 184.211 127.929 184.2C127.975 184.189 128.022 184.193 128.065 184.209C128.948 184.485 129.796 184.861 130.593 185.329C131.237 185.61 131.749 186.127 132.025 186.773ZM130.821 187.844C130.894 187.855 130.969 187.848 131.038 187.822C131.108 187.797 131.17 187.755 131.219 187.7C131.337 187.602 131.427 187.475 131.48 187.331C131.532 187.188 131.546 187.032 131.52 186.881C131.363 186.219 130.244 185.473 128.486 184.811C129.1 186.087 130.111 187.712 130.821 187.844Z" fill="#407BFF"/>
<path d="M128.655 188.53C128.501 188.72 128.293 188.859 128.059 188.927C127.825 188.996 127.575 188.992 127.343 188.916C127.191 188.899 127.046 188.844 126.922 188.756C126.797 188.667 126.698 188.548 126.633 188.41C126.055 187.206 127.836 184.149 128.041 183.8C128.071 183.766 128.108 183.739 128.15 183.721C128.191 183.702 128.236 183.692 128.282 183.692C128.328 183.696 128.371 183.714 128.406 183.745C128.44 183.775 128.464 183.816 128.474 183.86C128.76 184.744 128.946 185.656 129.028 186.581C129.161 187.254 129.027 187.953 128.655 188.53ZM127.114 188.205C127.145 188.274 127.194 188.334 127.255 188.378C127.316 188.423 127.388 188.45 127.463 188.458C127.612 188.493 127.766 188.491 127.914 188.451C128.061 188.411 128.196 188.335 128.306 188.23C128.739 187.712 128.703 186.364 128.222 184.546C127.548 185.75 126.801 187.556 127.114 188.157V188.205Z" fill="#407BFF"/>
<path d="M126.621 184.908L116.799 178.889C116.631 178.793 116.506 178.635 116.452 178.449C116.398 178.262 116.419 178.062 116.51 177.89L120.807 169.814C121.057 169.406 121.457 169.113 121.921 168.998C122.385 168.883 122.876 168.956 123.287 169.2C126.681 171.367 128.198 172.57 132.494 175.218C135.142 176.855 140.535 179.84 143.808 182.645C147.082 185.449 144.206 188.663 142.605 187.712C138.717 185.594 132.109 184.883 128.45 185.305C127.813 185.383 127.168 185.243 126.621 184.908Z" fill="#263238"/>
<path d="M60.0486 107.792C60.5113 103.075 60.5717 98.3277 60.2291 93.6009C59.6153 82.997 57.6534 71.021 55.2822 63.5826C55.2822 63.5826 60.7828 57.5646 79.2824 56.0119C97.7821 54.4592 106.653 58.4191 106.653 58.4191C106.653 58.4191 107.929 64.5335 109.325 73.9217C111.106 85.6773 112.227 97.5235 112.683 109.404L60.0486 107.792Z" fill="#407BFF"/>
<path d="M90.5724 58.9367L75.8401 64.1122L70.4358 61.5245C71.1096 60.7633 71.6618 59.9026 72.0727 58.9728C74.8049 52.8945 68.9433 47.5986 68.9433 47.5986L75.0457 45.3117L88.4901 40.2926C83.3627 51.9437 90.5724 58.9367 90.5724 58.9367Z" fill="#EBB376"/>
<path opacity="0.2" d="M86.5643 45.3117C86.5643 45.3117 81.2323 57.9377 72.0366 58.9728C74.7688 52.8945 68.9072 47.5986 68.9072 47.5986L75.0096 45.3117H86.5643Z" fill="black"/>
<path d="M60.0486 107.792L112.683 109.404C112.683 109.404 119.182 136.534 112.683 152.193C106.183 167.852 83.9766 174.556 83.9766 174.556L118.195 174.773C118.195 174.773 125.622 179.467 126.621 184.956C126.621 184.956 60.6263 201 44.2812 191.371C27.936 181.742 68.6184 137.401 68.6184 137.401L53.2361 126.797C59.2662 112.606 60.0486 107.792 60.0486 107.792Z" fill="#263238"/>
<path d="M70.0868 56.2045C70.0868 56.2045 79.1019 61.9577 89.3447 53.9537L94.0749 58.3349C94.0749 58.3349 87.0337 68.0962 77.6816 67.8675C68.3295 67.6388 65.8019 60.9106 65.8019 60.9106L70.0868 56.2045Z" fill="#407BFF"/>
<path d="M47.0495 15.2814C47.0495 15.2814 38.2871 32.0237 58.2913 37.6808C80.8832 44.072 47.0495 15.2814 47.0495 15.2814Z" fill="#263238"/>
<path d="M87.3708 19.819C90.9816 30.5072 90.0187 44.4691 82.0749 49.6688C67.499 59.1894 60.0365 58.7682 53.3444 47.7911C47.3263 37.9335 43.9682 19.6866 55.7517 11.0807C67.5351 2.47484 82.3276 4.99042 87.3708 19.819Z" fill="#EBB376"/>
<path d="M48.3975 22.8522C54.0182 22.4569 59.4262 20.5433 64.0446 17.3155C64.0446 17.3155 77.2122 17.0748 78.8491 24.7659C80.486 32.457 83.9525 31.434 88.2494 40.7139C88.2494 40.7139 97.5774 35.3698 90.3678 14.1019C85.132 -1.38874 69.6174 -1.70169 56.3414 4.23215C45.2561 9.19107 40.7546 20.6255 48.3975 22.8522Z" fill="#263238"/>
<path d="M64.9473 32.8302C65.4528 34.1662 65.1519 35.5383 64.2612 35.8513C63.3706 36.1642 62.2753 35.3578 61.7577 34.0097C61.2402 32.6617 61.5651 31.3256 62.4438 30.9886C63.3224 30.6516 64.4177 31.4821 64.9473 32.8302Z" fill="#263238"/>
<path d="M54.0184 36.3327C54.5119 37.6206 54.2231 38.9325 53.3685 39.2334C52.5139 39.5343 51.4668 38.752 50.9613 37.4761C50.4557 36.2003 50.7687 34.9004 51.5992 34.5754C52.4297 34.2505 53.5851 35.0569 54.0184 36.3327Z" fill="#263238"/>
<path d="M58.544 27.5463C58.4176 27.4998 58.3055 27.4209 58.2191 27.3176C58.1333 27.1699 58.1079 26.9947 58.1483 26.8287C58.1887 26.6627 58.2917 26.5187 58.4357 26.4269C59.2959 25.8687 60.2787 25.5277 61.2998 25.4334C62.3208 25.339 63.3495 25.4941 64.2973 25.8853C64.3745 25.9203 64.4439 25.9702 64.5016 26.0323C64.5592 26.0944 64.6039 26.1674 64.633 26.2469C64.6622 26.3265 64.6751 26.4111 64.6712 26.4957C64.6673 26.5803 64.6466 26.6633 64.6103 26.7398C64.5304 26.8903 64.3975 27.0056 64.2373 27.0635C64.0772 27.1213 63.9012 27.1175 63.7437 27.0528C62.9832 26.7566 62.1622 26.649 61.3511 26.7391C60.5399 26.8293 59.7626 27.1145 59.0857 27.5703C58.999 27.6056 58.9057 27.6216 58.8122 27.6175C58.7187 27.6133 58.6273 27.589 58.544 27.5463Z" fill="#263238"/>
<path d="M48.3494 31.9635C48.2317 31.9893 48.109 31.9791 47.9972 31.9343C47.8854 31.8896 47.7895 31.8123 47.7221 31.7124C47.6547 31.6126 47.6188 31.4948 47.6191 31.3744C47.6193 31.2539 47.6557 31.1363 47.7235 31.0368C48.2117 30.1348 48.9114 29.3646 49.7625 28.7924C50.6136 28.2201 51.5907 27.8627 52.6102 27.7509C52.7819 27.7442 52.9494 27.8045 53.0774 27.919C53.2054 28.0336 53.2839 28.1934 53.2963 28.3647C53.297 28.5335 53.2343 28.6965 53.1206 28.8213C53.0069 28.9461 52.8506 29.0237 52.6824 29.0388C51.8707 29.1445 51.0965 29.4449 50.4259 29.9143C49.7553 30.3838 49.2081 31.0083 48.8308 31.7348C48.7047 31.8687 48.5329 31.9503 48.3494 31.9635Z" fill="#263238"/>
<path d="M94.099 29.7729C94.099 29.7729 98.3237 36.6697 98.432 48.1522C98.5403 59.6348 92.4139 69.7091 91.5714 75.8957C90.7288 82.0823 92.2695 83.9118 92.2695 83.9118L85.8421 82.5156C85.8421 82.5156 83.8321 73.7051 87.8763 67.9036C85.902 70.1961 84.5581 72.9628 83.9765 75.9318C83.9765 75.9318 82.3637 71.7913 85.6616 60.9467C88.9595 50.1021 90.9335 41.9415 85.9505 36.4651C80.9675 30.9886 94.099 29.7729 94.099 29.7729Z" fill="#263238"/>
<path d="M56.7025 37.103L60.3134 42.2665C59.0302 43.1495 57.5137 43.6312 55.9563 43.6507C56.6014 41.5317 56.8543 39.3128 56.7025 37.103Z" fill="#D58745"/>
<path d="M78.3436 31.0608C78.3436 31.0608 78.5241 23.5141 82.6526 24.2122C86.781 24.9103 90.44 35.8873 85.5051 37.8613C80.5703 39.8352 77.5011 35.4059 78.3436 31.0608Z" fill="#EBB376"/>
<path d="M61.8299 46.9245C63.3206 47.8106 64.7447 48.8042 66.0908 49.8975C66.3306 49.7057 66.5596 49.5008 66.7768 49.2837C69.8581 46.4913 70.3877 44.1923 69.9784 42.4712C69.769 41.6331 69.3556 40.8598 68.7748 40.2204C68.4714 39.8418 68.1146 39.5094 67.7156 39.2334C66.9694 41.6407 64.3094 44.5053 62.8169 45.9496C62.2512 46.5635 61.8299 46.9245 61.8299 46.9245Z" fill="#263238"/>
<path d="M62.865 45.9496L64.1409 46.8042C67.0296 44.1682 68.7147 41.9175 68.823 40.2204C68.5196 39.8418 68.1628 39.5094 67.7638 39.2334C67.0175 41.6768 64.4177 44.5053 62.865 45.9496Z" fill="white"/>
<path d="M66.825 49.2837C69.9062 46.4913 70.4358 44.1924 70.0266 42.4712C68.8761 43.5528 67.9302 44.8331 67.2342 46.2505C66.7838 47.1939 66.6406 48.2547 66.825 49.2837Z" fill="#DE5753"/>
<path d="M44.9552 15.7147C44.9552 15.7147 42.5479 22.0337 52.5019 26.5473L56.7988 24.3206L55.2822 22.8281L63.3585 24.2002H68.3896L63.3585 20.7218C63.3585 20.7218 71.9524 22.8883 74.1911 28.4129H79.7278L79.2944 26.4751C79.2944 26.4751 84.9515 33.2876 89.3808 35.9596C93.8101 38.6316 94.0869 29.8091 94.0869 29.8091C94.0869 29.8091 82.1591 9.62439 66.6926 9.61235C51.2261 9.60032 44.9552 15.7147 44.9552 15.7147Z" fill="#263238"/>
<path opacity="0.2" d="M60.0486 107.792C60.5113 103.075 60.5717 98.3277 60.2291 93.6009C65.9583 99.619 76.5021 103.386 76.5021 103.386C76.5021 103.386 95.0499 95.274 98.432 91.7835C101.814 88.293 102.043 71.4423 102.043 71.4423L109.265 73.9217C111.046 85.6773 112.167 97.5234 112.623 109.404L60.0486 107.792Z" fill="black"/>
<path d="M0 111.691L33.6171 98.0062L66.7046 100.787L73.2643 135.102L38.9612 156.43L5.78941 149.244L0 111.691Z" fill="#407BFF"/>
<path opacity="0.3" d="M66.7046 100.787L33.3764 117.481L38.9612 156.43L5.78941 149.244L0 111.691L33.6171 98.0062L66.7046 100.787Z" fill="white"/>
<path opacity="0.3" d="M0 111.691L33.3764 117.481L66.7046 100.787L33.6171 98.0062L0 111.691Z" fill="white"/>
<path d="M83.9765 106.588L75.804 109.356C75.804 109.356 70.7367 107.707 68.8711 109.356C67.0055 111.005 61.7698 120.731 61.83 122.355C61.8901 123.98 67.3786 127.687 70.0868 127.17C72.7949 126.652 77.7298 116.47 77.7298 116.47L86.5643 113.954L83.9765 106.588Z" fill="#EBB376"/>
<path d="M101.549 60.9106C99.5875 65.2677 106.364 87.5106 104.053 93.0713C101.742 98.6321 78.1992 105.89 78.1992 105.89L80.6786 116.518C80.6786 116.518 114.524 110.753 117.991 101.713C120.494 95.2258 115.21 72.3209 111.034 64.4011C106.857 56.4813 103.632 56.2767 101.549 60.9106Z" fill="#407BFF"/>
</svg>
