<svg width="231" height="116" viewBox="0 0 231 116" fill="none" xmlns="http://www.w3.org/2000/svg">
<path d="M210.78 95.6505C208.96 101.01 189.59 111.76 189.59 111.76L178.17 98.2004C178.17 98.2004 187.27 93.6604 189.56 89.5104C190.67 87.5104 186.93 79.2204 182.79 71.1604C178.33 62.5404 173.4 54.2104 173.4 54.2104L182.01 48.9305C182.01 48.9305 193.66 64.7004 202.15 78.0304C207.39 86.2604 211.46 93.6005 210.78 95.6505Z" fill="#EBB376"/>
<path opacity="0.2" d="M210.78 95.6505C208.96 101.01 189.59 111.76 189.59 111.76L178.17 98.2004C178.17 98.2004 187.27 93.6604 189.56 89.5104C190.67 87.5104 186.93 79.2204 182.79 71.1604C189.488 72.6929 195.985 74.9983 202.15 78.0304C207.39 86.2604 211.46 93.6005 210.78 95.6505Z" fill="black"/>
<path d="M70.76 68.3104C70.76 68.3104 57.68 88.1204 52.51 91.3904C49.58 93.2504 32.69 99.8604 32.69 99.8604L35.69 110.31C35.69 110.31 56.58 103.84 63.26 99.8604C69.94 95.8804 86.26 76.8604 86.26 76.8604L70.76 68.3104Z" fill="#EBB376"/>
<path d="M91.53 46.5504C80.5026 52.1788 71.7514 61.4349 66.75 72.7604L80.59 84.7604L101.15 74.1704L91.53 46.5504Z" fill="#407BFF"/>
<path opacity="0.2" d="M101.15 74.1204L96.64 76.4404L84.49 82.7004L80.58 84.7004L66.75 72.7004C71.7631 61.3926 80.5124 52.1527 91.53 46.5304L101.15 74.1204Z" fill="black"/>
<path opacity="0.2" d="M96.64 76.4404L84.49 82.7004C84.93 74.3204 89.34 65.6304 89.34 65.6304L96.64 76.4404Z" fill="black"/>
<path d="M32.69 99.8604C32.69 99.8604 26.95 94.3704 25.59 93.8604C24.23 93.3504 11.39 96.8604 10.3 99.0704C9.21003 101.28 17.7 110.14 22.17 110.93C26.64 111.72 36.06 108.76 36.06 108.76L32.69 99.8604Z" fill="#EBB376"/>
<path d="M182.39 50.0904L173.96 56.7604C173.892 56.8267 173.811 56.878 173.723 56.9107C173.634 56.9434 173.539 56.9569 173.444 56.9503C173.35 56.9437 173.258 56.9171 173.174 56.8723C173.091 56.8275 173.018 56.7655 172.96 56.6904L167.27 50.3604C166.997 50.0109 166.871 49.5685 166.92 49.1275C166.968 48.6866 167.187 48.2821 167.53 48.0004C170.53 45.7304 172.03 44.7904 175.75 41.8904C178.02 40.1004 182.34 36.3404 185.83 34.3804C189.32 32.4204 191.17 35.9304 189.83 37.0604C186.75 39.7804 184.02 45.3305 183.23 48.6505C183.108 49.2068 182.814 49.7106 182.39 50.0904Z" fill="#263238"/>
<path d="M185.69 45.9604C185.916 45.9866 186.131 46.0766 186.308 46.2201C186.485 46.3635 186.617 46.5544 186.69 46.7704C186.759 46.8942 186.796 47.0336 186.796 47.1754C186.796 47.3172 186.759 47.4567 186.69 47.5804C186.05 48.6604 182.79 48.9004 182.41 48.9204C182.369 48.9191 182.329 48.9074 182.294 48.8864C182.259 48.8654 182.23 48.8358 182.21 48.8004C182.182 48.7665 182.167 48.7242 182.167 48.6805C182.167 48.6367 182.182 48.5943 182.21 48.5604C182.739 47.8816 183.339 47.2614 184 46.7104C184.45 46.2586 185.053 45.9912 185.69 45.9604ZM186.26 47.3204C186.294 47.2593 186.312 47.1904 186.312 47.1204C186.312 47.0504 186.294 46.9816 186.26 46.9204C186.212 46.7883 186.131 46.6709 186.024 46.5797C185.917 46.4885 185.788 46.4268 185.65 46.4005C185.02 46.3405 184 47.0705 182.87 48.4005C184.18 48.2605 185.87 47.9004 186.26 47.3204Z" fill="#407BFF"/>
<path d="M182.39 48.4505C183.48 48.3005 185.84 48.9805 186.32 49.9305C186.397 50.0984 186.417 50.2869 186.377 50.4673C186.338 50.6477 186.24 50.8103 186.1 50.9305C185.979 51.0548 185.832 51.1508 185.669 51.2113C185.507 51.2718 185.333 51.2954 185.16 51.2804C183.84 51.1504 182.28 48.8305 182.23 48.7705C182.212 48.7364 182.203 48.6987 182.203 48.6604C182.203 48.6222 182.212 48.5845 182.23 48.5505C182.256 48.5413 182.284 48.5413 182.31 48.5505C182.314 48.5286 182.324 48.5082 182.338 48.4908C182.352 48.4734 182.37 48.4596 182.39 48.4505ZM185.77 50.6105C185.99 50.3905 185.96 50.2104 185.9 50.1004C185.54 49.4904 183.9 48.8804 182.82 48.8404C183.36 49.5604 184.39 50.7504 185.19 50.8404C185.278 50.8547 185.368 50.8505 185.454 50.8281C185.54 50.8058 185.62 50.7657 185.69 50.7105L185.77 50.6105Z" fill="#407BFF"/>
<path d="M202 110.31C202 110.31 224 107.51 227.64 103.2C231.28 98.8904 218.16 49.1304 218.16 49.1304L208.22 50.8604C208.22 50.8604 213.85 86.6204 210.22 89.6304C206.59 92.6404 196.39 93.5104 196.39 93.5104L202 110.31Z" fill="#EBB376"/>
<path d="M154.5 76.8904C154.5 76.8904 172.24 77.3104 181.94 81.4804H197.01C204.068 89.476 208.043 99.7268 208.22 110.39C208.22 110.39 165.6 119.31 129.93 109.61L154.5 76.8904Z" fill="#263238"/>
<path d="M161.29 99.5404C152.88 115.67 132.39 114.1 132.39 114.1C130.84 113.46 129.32 112.81 127.87 112.1C123.557 110.16 119.387 107.918 115.39 105.39C79.8 82.8004 86.86 51.9404 86.86 51.9404C86.86 51.9404 97.08 40.9404 112.68 45.2604C137.33 52.0104 135.96 74.9904 166.29 76.2604C166.24 76.3004 167.75 87.1404 161.29 99.5404Z" fill="#407BFF"/>
<path d="M93.88 60.2904C93.7137 59.3055 93.4799 58.3332 93.18 57.3804C92.6552 55.7513 91.9189 54.1981 90.99 52.7604C88.2228 48.644 83.9556 45.7729 79.1 44.7604C79.1 44.7604 92.83 23.6204 96.18 35.5604C96.6463 37.3256 97.3743 39.011 98.34 40.5604C99.0138 41.6468 99.8896 42.5939 100.92 43.3504C101.952 44.1083 103.14 44.6279 104.397 44.8717C105.654 45.1156 106.949 45.0775 108.19 44.7604C111.01 61.0604 93.88 60.2904 93.88 60.2904Z" fill="#EBB376"/>
<path opacity="0.2" d="M100.92 43.3504C99.86 48.4804 97.6 53.7504 93.18 57.3504C92.6527 55.7317 91.9165 54.1887 90.99 52.7604C88.2228 48.644 83.9556 45.7729 79.1 44.7604C79.1 44.7604 92.83 23.6204 96.18 35.5604C96.6463 37.3256 97.3743 39.011 98.34 40.5604C99.0138 41.6468 99.8896 42.5939 100.92 43.3504Z" fill="black"/>
<path d="M218.05 50.3604L207.79 53.4504C207.706 53.4803 207.617 53.493 207.528 53.488C207.439 53.483 207.352 53.4602 207.272 53.4211C207.192 53.382 207.12 53.3273 207.062 53.2602C207.003 53.1931 206.958 53.115 206.93 53.0304L203.99 45.0304C203.862 44.6048 203.906 44.1456 204.114 43.7525C204.322 43.3594 204.676 43.0641 205.1 42.9305C208.7 41.9305 210.46 41.6104 214.99 40.2804C217.76 39.4604 223.16 37.5604 227.13 37.0304C231.1 36.5004 231.52 40.4304 229.89 41.0304C226.02 42.4104 221.44 46.5604 219.47 49.3604C219.12 49.8416 218.621 50.1933 218.05 50.3604Z" fill="#263238"/>
<path d="M222.67 47.7604C222.869 47.866 223.034 48.027 223.144 48.2239C223.254 48.4208 223.305 48.6453 223.29 48.8704C223.31 49.0132 223.291 49.1586 223.237 49.292C223.182 49.4255 223.094 49.5422 222.98 49.6304C221.98 50.4004 218.87 49.4105 218.52 49.3005C218.48 49.2824 218.446 49.2546 218.419 49.2196C218.393 49.1847 218.376 49.1437 218.37 49.1004C218.364 49.0583 218.371 49.0152 218.39 48.9774C218.41 48.9396 218.442 48.9092 218.48 48.8905C219.22 48.4544 220.004 48.099 220.82 47.8305C221.407 47.5781 222.066 47.5531 222.67 47.7604ZM222.67 49.2405C222.724 49.1967 222.767 49.1397 222.793 49.0749C222.819 49.0102 222.829 48.9398 222.82 48.8704C222.823 48.7281 222.79 48.5873 222.723 48.4613C222.657 48.3354 222.559 48.2284 222.44 48.1505C221.88 47.8605 220.66 48.1505 219.13 48.9905C220.39 49.3405 222.13 49.6505 222.67 49.2405Z" fill="#407BFF"/>
<path d="M218.64 48.8304C219.71 49.1004 221.64 50.6004 221.74 51.6604C221.756 51.851 221.708 52.0415 221.603 52.2012C221.498 52.3609 221.342 52.4804 221.16 52.5404C221.004 52.6143 220.833 52.6526 220.66 52.6526C220.487 52.6526 220.316 52.6143 220.16 52.5404C218.98 51.9204 218.39 49.2004 218.37 49.1204C218.364 49.0847 218.367 49.0482 218.377 49.0136C218.388 48.9789 218.406 48.9471 218.43 48.9204C218.462 48.9098 218.498 48.9098 218.53 48.9204C218.539 48.8975 218.554 48.8773 218.574 48.8616C218.593 48.8459 218.616 48.8352 218.64 48.8304ZM220.98 52.0904C221.27 51.9704 221.31 51.7904 221.29 51.6604C221.19 50.9704 219.89 49.7904 218.9 49.3604C219.13 50.2304 219.65 51.7104 220.36 52.0804C220.438 52.1255 220.525 52.1532 220.615 52.1619C220.704 52.1705 220.795 52.1598 220.88 52.1304L220.98 52.0904Z" fill="#407BFF"/>
<path d="M68.57 13.8904C68.57 13.8904 63.34 20.8004 67.93 28.2204C72.52 35.6404 79.66 16.5904 79.66 16.5904L68.57 13.8904Z" fill="#263238"/>
<path d="M104.07 23.2604C103.29 34.8204 103.49 41.6104 96.94 47.5204C87.07 56.4404 71.03 51.1804 67.94 39.6404C65.09 29.2704 66.88 12.1304 79.6 7.52044C92.32 2.91044 104.86 11.7604 104.07 23.2604Z" fill="#EBB376"/>
<path d="M80.58 29.9804C80.66 30.9804 80.18 31.8704 79.51 31.9104C78.84 31.9504 78.25 31.1704 78.17 30.1604C78.09 29.1504 78.57 28.2804 79.24 28.2204C79.91 28.1604 80.5 28.9604 80.58 29.9804Z" fill="#263238"/>
<path d="M71.96 29.9804C72.04 30.9804 71.57 31.8704 70.89 31.9104C70.21 31.9504 69.63 31.1704 69.55 30.1604C69.47 29.1504 69.95 28.2804 70.62 28.2204C71.29 28.1604 71.88 28.9604 71.96 29.9804Z" fill="#263238"/>
<path d="M79.25 22.4504C79.1618 22.3623 79.0995 22.2516 79.07 22.1304C79.0588 21.9718 79.1101 21.815 79.2128 21.6936C79.3156 21.5722 79.4617 21.4957 79.62 21.4804C80.5701 21.374 81.5318 21.5005 82.4221 21.849C83.3124 22.1974 84.1045 22.7574 84.73 23.4804C84.8276 23.6053 84.872 23.7637 84.8532 23.921C84.8345 24.0784 84.7542 24.222 84.63 24.3204C84.5017 24.4139 84.343 24.4554 84.1854 24.4369C84.0278 24.4184 83.8831 24.3411 83.78 24.2204C83.268 23.6596 82.6271 23.2318 81.9128 22.974C81.1985 22.7161 80.4322 22.636 79.68 22.7404C79.5916 22.726 79.5074 22.6926 79.4332 22.6425C79.359 22.5925 79.2965 22.5269 79.25 22.4504Z" fill="#263238"/>
<path d="M67.06 24.1904C66.9337 24.1706 66.8157 24.1151 66.72 24.0304C66.6195 23.9079 66.5697 23.7516 66.5808 23.5935C66.592 23.4354 66.6632 23.2876 66.78 23.1805C67.4822 22.5352 68.3298 22.0691 69.2509 21.8218C70.1719 21.5746 71.139 21.5536 72.07 21.7604C72.2222 21.8046 72.3508 21.9072 72.4276 22.0459C72.5044 22.1845 72.5232 22.3479 72.48 22.5004C72.4315 22.6503 72.3286 22.7765 72.1916 22.8543C72.0546 22.932 71.8935 22.9556 71.74 22.9204C70.9973 22.7694 70.2291 22.8006 69.5012 23.0113C68.7732 23.222 68.1071 23.606 67.56 24.1304C67.4852 24.1743 67.4023 24.2022 67.3162 24.2126C67.2302 24.2229 67.143 24.2154 67.06 24.1904Z" fill="#263238"/>
<path d="M74.6 32.5704L71.81 35.1004C71.81 35.1004 72.67 36.2404 75.52 36.3404L74.6 32.5704Z" fill="#D58745"/>
<path d="M74.44 38.8604C75.3389 40.3056 76.1343 41.8127 76.82 43.3704L77.69 43.1505C81.62 42.0905 83.1 40.3004 83.54 38.6404C83.7409 37.8226 83.7409 36.9683 83.54 36.1505C83.4439 35.6834 83.2824 35.2322 83.06 34.8104C81.31 36.6204 77.72 37.8904 75.77 38.4804C74.96 38.7604 74.44 38.8604 74.44 38.8604Z" fill="#263238"/>
<path d="M75.77 38.4804L76.51 39.7904C80.21 38.7904 82.69 37.5905 83.51 36.1505C83.4139 35.6834 83.2524 35.2322 83.03 34.8104C81.31 36.6204 77.72 37.8904 75.77 38.4804Z" fill="white"/>
<path d="M77.69 43.1505C81.62 42.0905 83.1 40.3004 83.54 38.6404C82.0551 39.0555 80.6564 39.7329 79.41 40.6404C78.5833 41.2719 77.9805 42.1516 77.69 43.1505Z" fill="#DE5753"/>
<path d="M71.97 5.51044C68.9 4.74044 64.49 10.4505 66.75 15.1805C69.01 19.9105 74.44 19.3904 74.44 19.3904L72.99 18.3104C72.99 18.3104 78.27 20.1404 81.93 18.8504C85.59 17.5604 86.39 20.7604 86.39 20.7604C86.39 20.7604 88.14 21.2004 88.34 18.7604C89.8632 20.8607 90.6887 23.386 90.7 25.9804C90.92 30.7104 93.7 32.5505 96.95 31.1505C99.09 30.2205 98.36 40.5604 100.95 42.4404C103.38 44.1804 105.43 40.4404 105.43 40.4404C105.43 40.4404 109.74 41.6204 112.64 36.3904C112.64 36.3904 109.41 36.3904 109.82 31.6104C109.82 31.6104 113.89 28.0504 109.82 20.7304C109.82 20.7304 112.38 17.8205 109.82 11.9005C107.26 5.98046 102.82 5.46045 102.82 5.46045C102.82 5.46045 102.05 2.53043 95.31 0.690434C88.57 -1.14957 85.76 1.27045 85.76 1.27045C85.76 1.27045 83.28 0.150451 79.04 1.27045C76.3464 2.02561 73.9048 3.48987 71.97 5.51044Z" fill="#263238"/>
<path d="M94.57 31.2204C94.57 31.2204 96.69 24.5404 100.19 26.2204C103.69 27.9004 104.1 38.6605 99.19 39.1405C94.28 39.6205 92.69 34.8804 94.57 31.2204Z" fill="#EBB376"/>
<path d="M18.27 108.49H16.57C15.7054 108.49 14.8762 108.834 14.2648 109.445C13.6535 110.057 13.31 110.886 13.31 111.75C13.31 112.615 13.6535 113.444 14.2648 114.056C14.8762 114.667 15.7054 115.01 16.57 115.01H18.27C19.1346 115.01 19.9638 114.667 20.5752 114.056C21.1865 113.444 21.53 112.615 21.53 111.75C21.53 110.886 21.1865 110.057 20.5752 109.445C19.9638 108.834 19.1346 108.49 18.27 108.49Z" fill="#263238"/>
<path opacity="0.2" d="M19.84 111.76C19.842 112.408 19.6519 113.041 19.2938 113.58C18.9357 114.119 18.4257 114.54 17.8284 114.789C17.231 115.038 16.5732 115.104 15.9382 114.979C15.3033 114.854 14.7197 114.543 14.2614 114.086C13.803 113.629 13.4906 113.047 13.3636 112.412C13.2366 111.777 13.3008 111.119 13.548 110.521C13.7952 109.923 14.2143 109.412 14.7523 109.052C15.2902 108.692 15.9229 108.5 16.57 108.5C16.999 108.499 17.424 108.582 17.8206 108.746C18.2173 108.909 18.5779 109.149 18.8817 109.452C19.1854 109.755 19.4265 110.114 19.5909 110.511C19.7554 110.907 19.84 111.331 19.84 111.76Z" fill="black"/>
<path d="M18.47 111.76C18.47 112.136 18.3586 112.504 18.1498 112.816C17.941 113.128 17.6443 113.372 17.2971 113.516C16.9499 113.66 16.5679 113.697 16.1993 113.624C15.8307 113.551 15.4922 113.37 15.2265 113.104C14.9608 112.838 14.7798 112.5 14.7065 112.131C14.6332 111.763 14.6708 111.381 14.8146 111.033C14.9584 110.686 15.2019 110.389 15.5144 110.181C15.8269 109.972 16.1942 109.86 16.57 109.86C17.0739 109.86 17.5572 110.061 17.9135 110.417C18.2698 110.773 18.47 111.257 18.47 111.76Z" fill="#263238"/>
<path d="M34.61 108.49H32.91C32.0454 108.49 31.2162 108.834 30.6049 109.445C29.9935 110.057 29.65 110.886 29.65 111.75C29.65 112.615 29.9935 113.444 30.6049 114.056C31.2162 114.667 32.0454 115.01 32.91 115.01H34.61C35.0381 115.01 35.4621 114.926 35.8576 114.762C36.2531 114.598 36.6125 114.358 36.9152 114.056C37.2179 113.753 37.458 113.394 37.6219 112.998C37.7857 112.602 37.87 112.179 37.87 111.75C37.87 111.322 37.7857 110.898 37.6219 110.503C37.458 110.107 37.2179 109.748 36.9152 109.445C36.6125 109.143 36.2531 108.902 35.8576 108.739C35.4621 108.575 35.0381 108.49 34.61 108.49Z" fill="#263238"/>
<path opacity="0.2" d="M36.17 111.76C36.17 112.405 35.9788 113.035 35.6206 113.572C35.2624 114.108 34.7533 114.526 34.1576 114.772C33.5619 115.019 32.9064 115.084 32.274 114.958C31.6416 114.832 31.0608 114.522 30.6049 114.066C30.1489 113.61 29.8385 113.029 29.7127 112.396C29.5869 111.764 29.6514 111.109 29.8982 110.513C30.1449 109.917 30.5628 109.408 31.0989 109.05C31.635 108.692 32.2653 108.5 32.91 108.5C33.7746 108.5 34.6038 108.844 35.2152 109.455C35.8266 110.067 36.17 110.896 36.17 111.76Z" fill="black"/>
<path d="M32.91 113.64C33.9538 113.64 34.8 112.794 34.8 111.75C34.8 110.707 33.9538 109.86 32.91 109.86C31.8662 109.86 31.02 110.707 31.02 111.75C31.02 112.794 31.8662 113.64 32.91 113.64Z" fill="#263238"/>
<path d="M38.72 110.53L37.02 111.28H4.46997V106.26H34.8L38.72 110.53Z" fill="#263238"/>
<path d="M26.44 108.49H24.74C23.8754 108.49 23.0462 108.834 22.4348 109.445C21.8234 110.057 21.48 110.886 21.48 111.75C21.48 112.615 21.8234 113.444 22.4348 114.056C23.0462 114.667 23.8754 115.01 24.74 115.01H26.44C27.3046 115.01 28.1338 114.667 28.7451 114.056C29.3565 113.444 29.7 112.615 29.7 111.75C29.7 110.886 29.3565 110.057 28.7451 109.445C28.1338 108.834 27.3046 108.49 26.44 108.49Z" fill="#263238"/>
<path opacity="0.1" d="M26.44 108.49H24.74C23.8754 108.49 23.0462 108.834 22.4348 109.445C21.8234 110.057 21.48 110.886 21.48 111.75C21.48 112.615 21.8234 113.444 22.4348 114.056C23.0462 114.667 23.8754 115.01 24.74 115.01H26.44C27.3046 115.01 28.1338 114.667 28.7451 114.056C29.3565 113.444 29.7 112.615 29.7 111.75C29.7 110.886 29.3565 110.057 28.7451 109.445C28.1338 108.834 27.3046 108.49 26.44 108.49Z" fill="white"/>
<path opacity="0.1" d="M28.01 111.76C28.012 112.408 27.8219 113.041 27.4638 113.58C27.1057 114.119 26.5957 114.54 25.9983 114.789C25.401 115.038 24.7432 115.104 24.1082 114.979C23.4732 114.854 22.8897 114.543 22.4313 114.086C21.973 113.629 21.6606 113.047 21.5336 112.412C21.4066 111.777 21.4708 111.119 21.718 110.521C21.9652 109.923 22.3843 109.412 22.9223 109.052C23.4602 108.692 24.0929 108.5 24.74 108.5C25.6055 108.5 26.4358 108.844 27.0487 109.455C27.6617 110.066 28.0074 110.895 28.01 111.76Z" fill="white"/>
<path d="M24.74 113.64C25.7838 113.64 26.63 112.794 26.63 111.75C26.63 110.707 25.7838 109.86 24.74 109.86C23.6962 109.86 22.85 110.707 22.85 111.75C22.85 112.794 23.6962 113.64 24.74 113.64Z" fill="#407BFF"/>
<path d="M10.1 108.49H8.39C7.96189 108.49 7.53798 108.575 7.14246 108.739C6.74693 108.902 6.38754 109.143 6.08482 109.445C5.7821 109.748 5.54199 110.107 5.37816 110.503C5.21433 110.898 5.13 111.322 5.13 111.75C5.13 112.179 5.21433 112.602 5.37816 112.998C5.54199 113.394 5.7821 113.753 6.08482 114.056C6.38754 114.358 6.74693 114.598 7.14246 114.762C7.53798 114.926 7.96189 115.01 8.39 115.01H10.08C10.5081 115.01 10.932 114.926 11.3275 114.762C11.7231 114.598 12.0824 114.358 12.3852 114.056C12.6879 113.753 12.928 113.394 13.0918 112.998C13.2557 112.602 13.34 112.179 13.34 111.75C13.34 111.322 13.2557 110.898 13.0918 110.503C12.928 110.107 12.6879 109.748 12.3852 109.445C12.0824 109.143 11.7231 108.902 11.3275 108.739C10.932 108.575 10.5081 108.49 10.08 108.49H10.1Z" fill="#263238"/>
<path opacity="0.1" d="M10.1 108.49H8.39C7.96189 108.49 7.53798 108.575 7.14246 108.739C6.74693 108.902 6.38754 109.143 6.08482 109.445C5.7821 109.748 5.54199 110.107 5.37816 110.503C5.21433 110.898 5.13 111.322 5.13 111.75C5.13 112.179 5.21433 112.602 5.37816 112.998C5.54199 113.394 5.7821 113.753 6.08482 114.056C6.38754 114.358 6.74693 114.598 7.14246 114.762C7.53798 114.926 7.96189 115.01 8.39 115.01H10.08C10.5081 115.01 10.932 114.926 11.3275 114.762C11.7231 114.598 12.0824 114.358 12.3852 114.056C12.6879 113.753 12.928 113.394 13.0918 112.998C13.2557 112.602 13.34 112.179 13.34 111.75C13.34 111.322 13.2557 110.898 13.0918 110.503C12.928 110.107 12.6879 109.748 12.3852 109.445C12.0824 109.143 11.7231 108.902 11.3275 108.739C10.932 108.575 10.5081 108.49 10.08 108.49H10.1Z" fill="white"/>
<path opacity="0.1" d="M11.67 111.76C11.672 112.408 11.4816 113.042 11.1231 113.581C10.7645 114.12 10.2539 114.541 9.65599 114.79C9.05807 115.038 8.39975 115.104 7.7645 114.978C7.12925 114.852 6.54567 114.541 6.08775 114.083C5.62984 113.625 5.31821 113.041 5.19235 112.406C5.0665 111.771 5.13209 111.112 5.38083 110.514C5.62957 109.917 6.05025 109.406 6.58952 109.047C7.1288 108.689 7.7624 108.498 8.40999 108.5C9.2746 108.5 10.1038 108.844 10.7152 109.455C11.3265 110.067 11.67 110.896 11.67 111.76Z" fill="white"/>
<path d="M10.3 111.76C10.3 112.137 10.1883 112.504 9.97908 112.817C9.76986 113.13 9.47254 113.373 9.12477 113.517C8.77701 113.66 8.39447 113.697 8.02564 113.623C7.6568 113.549 7.31828 113.367 7.05296 113.1C6.78765 112.834 6.60747 112.494 6.5353 112.125C6.46312 111.756 6.50218 111.373 6.64752 111.026C6.79286 110.679 7.03794 110.383 7.3517 110.176C7.66547 109.968 8.0338 109.858 8.41001 109.86C8.65905 109.86 8.90563 109.91 9.13559 110.005C9.36555 110.101 9.57435 110.241 9.74999 110.418C9.92562 110.594 10.0646 110.804 10.159 111.034C10.2534 111.265 10.3013 111.511 10.3 111.76Z" fill="#407BFF"/>
<path d="M8.81998 99.3804L8.16998 96.1505H10.81L13.42 98.7604V99.3804H8.81998Z" fill="#407BFF"/>
<path opacity="0.3" d="M8.81998 99.3804L8.16998 96.1505H10.81L13.42 98.7604V99.3804H8.81998Z" fill="black"/>
<path d="M11.52 98.3604H0.859985V99.1104H11.52V98.3604Z" fill="#407BFF"/>
<path opacity="0.3" d="M11.52 98.3604H0.859985V99.1104H11.52V98.3604Z" fill="black"/>
<path d="M39.25 108.48V110.96H28.55C28.55 110.114 28.2139 109.303 27.6157 108.705C27.0175 108.107 26.2061 107.77 25.36 107.77C24.514 107.77 23.7026 108.107 23.1043 108.705C22.5061 109.303 22.17 110.114 22.17 110.96H12.22C12.2443 110.526 12.1797 110.091 12.0302 109.682C11.8806 109.273 11.6492 108.899 11.3501 108.583C11.051 108.267 10.6906 108.015 10.2908 107.843C9.89102 107.67 9.4603 107.582 9.02501 107.582C8.58972 107.582 8.15902 107.67 7.75923 107.843C7.35944 108.015 6.99898 108.267 6.69991 108.583C6.40083 108.899 6.16944 109.273 6.01987 109.682C5.87029 110.091 5.80569 110.526 5.83002 110.96H3.76001V107.45L6.09001 98.6805H18.26C19.2988 98.662 20.3343 98.8037 21.33 99.1004C24 99.7404 28.47 101.4 34.94 105.55C36.28 106.4 37.73 107.38 39.25 108.48Z" fill="#407BFF"/>
<path opacity="0.2" d="M26.39 106.26C25.7724 106.259 25.1607 106.38 24.5898 106.616C24.019 106.851 23.5004 107.197 23.0637 107.634C22.627 108.071 22.2808 108.589 22.0451 109.16C21.8094 109.731 21.6887 110.343 21.69 110.96H22.18C22.18 110.114 22.5161 109.303 23.1143 108.705C23.7126 108.107 24.524 107.77 25.37 107.77C26.216 107.77 27.0274 108.107 27.6257 108.705C28.2239 109.303 28.56 110.114 28.56 110.96H31.08C31.08 109.716 30.5862 108.522 29.707 107.641C28.8277 106.759 27.6348 106.263 26.39 106.26Z" fill="black"/>
<path opacity="0.2" d="M10.05 106.26C9.43192 106.259 8.81968 106.38 8.24829 106.615C7.67691 106.851 7.1576 107.197 6.72011 107.633C6.28261 108.07 5.93551 108.589 5.69868 109.16C5.46186 109.73 5.33996 110.342 5.33997 110.96H5.82997C5.80565 110.526 5.87025 110.091 6.01982 109.682C6.16939 109.273 6.40079 108.899 6.69986 108.583C6.99893 108.267 7.3594 108.015 7.75919 107.843C8.15897 107.67 8.58967 107.582 9.02496 107.582C9.46025 107.582 9.89097 107.67 10.2908 107.843C10.6905 108.015 11.051 108.267 11.3501 108.583C11.6491 108.899 11.8805 109.273 12.0301 109.682C12.1797 110.091 12.2443 110.526 12.22 110.96H14.73C14.7313 110.345 14.6113 109.734 14.3768 109.165C14.1423 108.595 13.798 108.078 13.3634 107.641C12.9288 107.205 12.4125 106.858 11.844 106.621C11.2755 106.384 10.6659 106.262 10.05 106.26Z" fill="black"/>
<path d="M3.47997 101.32H11.93C13.3388 101.324 14.7206 101.708 15.93 102.43L24.29 107.21L22.75 108.49L15.95 104.83C14.5029 104.061 12.8889 103.659 11.25 103.66H4.24998C4.03446 103.57 3.84084 103.435 3.68225 103.263C3.52365 103.092 3.40378 102.888 3.33076 102.666C3.25774 102.444 3.23327 102.209 3.25901 101.977C3.28476 101.745 3.36011 101.521 3.47997 101.32Z" fill="#407BFF"/>
<path opacity="0.2" d="M3.47997 101.32H11.93C13.3388 101.324 14.7206 101.708 15.93 102.43L24.29 107.21L22.75 108.49L15.95 104.83C14.5029 104.061 12.8889 103.659 11.25 103.66H4.24998C4.03446 103.57 3.84084 103.435 3.68225 103.263C3.52365 103.092 3.40378 102.888 3.33076 102.666C3.25774 102.444 3.23327 102.209 3.25901 101.977C3.28476 101.745 3.36011 101.521 3.47997 101.32Z" fill="black"/>
<path d="M40.92 108.49H30.46V110.96H40.15L40.92 109.8V108.49Z" fill="#407BFF"/>
<path opacity="0.2" d="M40.92 108.49H30.46V110.96H40.15L40.92 109.8V108.49Z" fill="black"/>
<path opacity="0.4" d="M36.05 108.8H34.68V109.42H36.05V108.8Z" fill="white"/>
<path opacity="0.4" d="M40.73 108.8H39.36V109.42H40.73V108.8Z" fill="white"/>
<path d="M0.649994 99.3804L0 96.1505H2.64L5.25 98.7604V99.3804H0.649994Z" fill="#407BFF"/>
<path opacity="0.1" d="M40.92 108.48V109.76L40.15 110.92H31.58L32.69 109.81V108.44H30.78C27.773 105.802 24.4829 103.505 20.97 101.59C14.26 97.7204 6.09 98.6404 6.09 98.6404L5.91 99.0604H5.25999V99.3404H0.649994L0 96.1004H2.64999L4.85001 98.3104H8.61L8.17 96.1004H10.81L13.33 98.6404H18.26C19.2988 98.622 20.3343 98.7637 21.33 99.0604C24 99.7004 28.47 101.36 34.94 105.51C36.28 106.36 37.73 107.34 39.25 108.44L40.92 108.48Z" fill="black"/>
<path opacity="0.4" d="M34.94 105.55H33.76L32.07 104.48H30.22V105.55H27.22C19.81 99.8204 13.28 99.1004 13.28 99.1004H21.28C24 99.7604 28.47 101.4 34.94 105.55Z" fill="white"/>
<path opacity="0.2" d="M127.91 112.14C123.582 110.189 119.399 107.933 115.39 105.39L126.39 96.1404C126.39 96.1404 128.59 105.57 127.91 112.14Z" fill="black"/>
<path d="M65.64 96.1304C65.64 96.1304 61.24 99.5304 57.64 97.9704C54.9 96.7604 53.12 92.7304 47.05 93.3104C47.7998 92.7113 48.6859 92.3066 49.6296 92.1322C50.5734 91.9577 51.5456 92.0189 52.46 92.3104C56.98 93.7604 57.9 98.5905 64.25 93.8005L65.64 96.1304Z" fill="#263238"/>
<path opacity="0.1" d="M65.64 96.1304C65.64 96.1304 61.24 99.5304 57.64 97.9704C54.9 96.7604 53.12 92.7304 47.05 93.3104C47.7998 92.7113 48.6859 92.3066 49.6296 92.1322C50.5734 91.9577 51.5456 92.0189 52.46 92.3104C56.98 93.7604 57.9 98.5905 64.25 93.8005L65.64 96.1304Z" fill="white"/>
<path d="M67.08 106.39L62.57 88.1805C62.3771 87.4083 62.3385 86.6056 62.4563 85.8184C62.5742 85.0312 62.8462 84.2751 63.2568 83.5932C63.6674 82.9114 64.2085 82.3172 64.8491 81.8449C65.4897 81.3725 66.2173 81.0311 66.99 80.8404C68.5507 80.4567 70.1999 80.7076 71.5758 81.538C72.9518 82.3685 73.9423 83.7108 74.33 85.2705L78.78 103.27L67.08 106.39Z" fill="#263238"/>
<path opacity="0.2" d="M67.08 106.39L62.57 88.1805C62.3771 87.4083 62.3385 86.6056 62.4563 85.8184C62.5742 85.0312 62.8462 84.2751 63.2568 83.5932C63.6674 82.9114 64.2085 82.3172 64.8491 81.8449C65.4897 81.3725 66.2173 81.0311 66.99 80.8404C68.5507 80.4567 70.1999 80.7076 71.5758 81.538C72.9518 82.3685 73.9423 83.7108 74.33 85.2705L78.78 103.27L67.08 106.39Z" fill="white"/>
<path d="M64.73 89.7604C65.01 90.9004 64.63 91.9804 63.88 92.1704C63.13 92.3604 62.29 91.5805 62.01 90.4304C61.73 89.2804 62.1 88.2004 62.85 88.0204C63.6 87.8404 64.44 88.5904 64.73 89.7604Z" fill="#407BFF"/>
<path d="M76.33 99.3904C76.33 99.3904 81.81 100.34 84.24 97.2904C86.1 94.9504 85.79 90.5504 91.43 88.2904C90.4885 88.1034 89.5153 88.1525 88.5974 88.4335C87.6795 88.7144 86.8455 89.2184 86.17 89.9004C82.85 93.3004 84.29 98.0004 76.44 96.7204L76.33 99.3904Z" fill="#263238"/>
<path d="M72.45 88.6604C72.45 88.6604 80.26 86.0704 79.61 81.4704C78.96 76.8704 74.01 72.5504 77.38 69.6104C77.38 69.6104 75.89 70.7504 78.83 75.4604C81.77 80.1704 86.89 87.8204 74.27 91.5404C74.27 91.5404 72.31 91.6704 72.45 88.6604Z" fill="#263238"/>
<path opacity="0.3" d="M76.33 99.3904C76.33 99.3904 81.81 100.34 84.24 97.2904C86.1 94.9504 85.79 90.5504 91.43 88.2904C90.4885 88.1034 89.5153 88.1525 88.5974 88.4335C87.6795 88.7144 86.8455 89.2184 86.17 89.9004C82.85 93.3004 84.29 98.0004 76.44 96.7204L76.33 99.3904Z" fill="white"/>
<path opacity="0.3" d="M72.45 88.6604C72.45 88.6604 80.26 86.0704 79.61 81.4704C78.96 76.8704 74.01 72.5504 77.38 69.6104C77.38 69.6104 75.89 70.7504 78.83 75.4604C81.77 80.1704 86.89 87.8204 74.27 91.5404C74.27 91.5404 72.31 91.6704 72.45 88.6604Z" fill="white"/>
<path d="M129.93 87.4804C129.93 87.4804 124.03 109.02 120.15 112.9C116.27 116.78 81.83 114.13 81.83 114.13C81.83 114.13 71.23 115.59 70.59 114.13C69.95 112.67 66.71 101.85 68.43 101.56C70.15 101.27 79.29 98.4604 81.83 99.7604C83.402 100.596 84.7683 101.771 85.83 103.2C85.83 103.2 107.38 104.2 109.76 101.56C112.14 98.9204 112.62 84.7604 112.62 84.7604L129.93 87.4804Z" fill="#EBB376"/>
<path d="M117.63 56.2504C123.69 53.2004 132 56.7004 135.44 65.6304C138.88 74.5604 129.93 94.7604 129.93 94.7604L111.31 91.5604C111.31 91.5604 104.39 62.9404 117.63 56.2504Z" fill="#407BFF"/>
<path opacity="0.2" d="M117.63 56.2504C123.69 53.2004 132 56.7004 135.44 65.6304C138.88 74.5604 129.93 94.7604 129.93 94.7604L111.31 91.5604C111.31 91.5604 104.39 62.9404 117.63 56.2504Z" fill="black"/>
</svg>
