<svg width="177" height="117" viewBox="0 0 177 117" fill="none" xmlns="http://www.w3.org/2000/svg">
<path d="M108.361 58.1718C108.361 58.1718 118.557 48.551 120.345 46.5994C122.133 44.6479 130.053 29.4905 130.053 29.4905C130.03 28.6377 130.107 27.7852 130.282 26.9503C130.534 26.1221 132.251 22.4398 132.251 22.4398C132.251 22.4398 132.308 22.125 134.619 22.1591C136.93 22.1932 139.432 22.018 139.351 23.0198C139.271 24.0215 136.738 30.2895 135.918 30.7197C135.274 31.0861 134.658 31.5008 134.076 31.9602C134.076 31.9602 126.992 48.5604 125.4 50.8321C123.807 53.1039 113.075 64.5583 113.075 64.5583L108.361 58.1718Z" fill="#E4897B"/>
<path d="M116.465 62.9592C114.971 65.6894 112.889 68.0533 110.369 69.8799C105.317 73.7382 99.3624 75.4606 99.6212 69.9581C100.004 61.5916 111.648 54.5719 111.648 54.5719L116.465 62.9592Z" fill="#407BFF"/>
<path opacity="0.6" d="M116.465 62.9592C114.971 65.6894 112.889 68.0533 110.369 69.8799C105.317 73.7382 99.3624 75.4606 99.6212 69.9581C100.004 61.5916 111.648 54.5719 111.648 54.5719L116.465 62.9592Z" fill="white"/>
<path d="M21.8057 58.052L14.8904 49.9132L19.8073 45.7356L27.7566 54.1132L21.8057 58.052Z" fill="#EBB376"/>
<path d="M16.8089 51.6037L22.0558 47.6793C22.1016 47.6487 22.1408 47.6093 22.1711 47.5633C22.2013 47.5173 22.222 47.4656 22.2318 47.4114C22.2417 47.3573 22.2405 47.3017 22.2284 47.2479C22.2163 47.1942 22.1935 47.1435 22.1614 47.0988L19.3021 42.7571C19.2278 42.6436 19.1312 42.5465 19.0181 42.4715C18.9051 42.3966 18.778 42.3454 18.6445 42.3211C18.5111 42.2969 18.3741 42.3 18.2419 42.3303C18.1097 42.3607 17.985 42.4176 17.8755 42.4976C16.066 43.8964 15.2771 44.6575 12.9774 46.4042C10.86 47.8589 8.84947 49.4633 6.96126 51.2052C5.25549 52.9278 7.03443 54.6031 7.91457 54.0111C10.3196 52.6394 13.0393 51.9154 15.808 51.9096C16.1665 51.9227 16.519 51.815 16.8089 51.6037Z" fill="#263238"/>
<path d="M14.5531 52.0472C14.9859 51.7463 15.448 51.4898 15.9324 51.2817C15.9551 51.2709 15.9806 51.2676 16.0053 51.2721C16.03 51.2766 16.0527 51.2887 16.0701 51.3067C16.0892 51.3242 16.1034 51.3463 16.1114 51.3709C16.1194 51.3956 16.1209 51.4218 16.1157 51.4472C16.0746 51.6735 15.3956 53.5624 14.6756 53.7771C14.5927 53.8047 14.5041 53.811 14.4181 53.7954C14.3322 53.7797 14.2515 53.7426 14.1836 53.6876C14.0689 53.6109 13.9775 53.504 13.9196 53.3787C13.8617 53.2534 13.8395 53.1145 13.8554 52.9774C13.964 52.5913 14.2128 52.2596 14.5531 52.0472ZM14.5665 53.4828C14.9609 53.3818 15.444 52.4024 15.7311 51.6618C14.7624 52.126 14.1765 52.6089 14.1166 52.9944C14.1088 53.0798 14.1236 53.1656 14.1594 53.2435C14.1951 53.3213 14.2507 53.3884 14.3205 53.4381C14.3552 53.4641 14.3955 53.4816 14.4382 53.4894C14.4809 53.4972 14.5248 53.4949 14.5665 53.4828Z" fill="#407BFF"/>
<path d="M15.8993 51.296C15.921 51.2901 15.9437 51.289 15.9659 51.2931C15.988 51.2971 16.009 51.3061 16.0272 51.3193C16.0272 51.3193 17.1782 52.6467 17.053 53.4472C17.0354 53.5526 16.9943 53.6528 16.9327 53.7401C16.871 53.8275 16.7904 53.8997 16.697 53.9516C16.603 54.0185 16.4891 54.0515 16.3739 54.0453C16.2588 54.0392 16.1491 53.9941 16.0628 53.9176C15.8326 53.5389 15.6891 53.1139 15.6428 52.6731C15.5964 52.2324 15.6482 51.7868 15.7946 51.3685C15.8009 51.3461 15.8148 51.3266 15.8339 51.3134C15.853 51.3002 15.8761 51.2941 15.8993 51.296ZM16.6522 53.6386C16.6971 53.609 16.7347 53.5698 16.7624 53.5239C16.7901 53.4779 16.8072 53.4263 16.8124 53.3729C16.9 52.8908 16.3446 52.0885 16.0057 51.661C15.8456 52.3407 15.9397 53.0556 16.2703 53.6707C16.3392 53.6833 16.4233 53.7799 16.5941 53.6788L16.6522 53.6386Z" fill="#407BFF"/>
<path d="M103.849 96.1168C97.5715 97.0994 81.3637 95.5136 68.1969 92.9665C61.1194 91.5878 54.9238 89.9427 51.6816 88.2654C47.3786 86.0497 39.4159 78.9198 32.1222 71.9116C23.7132 63.8264 16.1861 55.922 16.1861 55.922L24.7014 49.8985C24.7014 49.8985 40.2404 65.0536 43.8386 66.8972C47.4368 68.7408 80.2785 65.6576 80.2785 65.6576C80.2785 65.6576 113.45 94.5699 103.849 96.1168Z" fill="#263238"/>
<path opacity="0.2" d="M69.8138 80.7791L68.2023 92.937C61.1248 91.5583 54.9292 89.9131 51.687 88.2359C47.384 86.0202 39.4213 78.8903 32.1276 71.8821C37.8751 72.5818 57.5971 75.0202 64.1067 75.6654C64.1067 75.6654 70.596 71.4485 75.5439 72.8566C75.5457 72.8468 71.7139 74.2437 69.8138 80.7791Z" fill="black"/>
<path d="M29.043 82.8065L19.9443 77.2284L23.322 71.7341L33.4743 77.2192L29.043 82.8065Z" fill="#EBB376"/>
<path d="M22.2921 78.2347L26.0624 72.8728C26.1285 72.7849 26.1575 72.6746 26.1431 72.5655C26.1287 72.4565 26.0721 72.3574 25.9855 72.2896L21.9151 69.0185C21.8069 68.9376 21.6835 68.8795 21.5522 68.8477C21.4209 68.8158 21.2845 68.8109 21.1513 68.8332C21.018 68.8555 20.8907 68.9046 20.7769 68.9775C20.6632 69.0503 20.5654 69.1455 20.4894 69.2572C19.2005 71.1471 18.6879 72.1211 17.0465 74.4957C15.4918 76.5375 14.0822 78.6857 12.828 80.9247C11.7564 83.1285 13.9629 84.1294 14.615 83.2825C16.4806 81.2408 18.8373 79.71 21.4612 78.8357C21.795 78.7287 22.086 78.5182 22.2921 78.2347Z" fill="#263238"/>
<path d="M20.2877 79.3643C20.5964 78.9383 20.9536 78.5496 21.3521 78.2061C21.3691 78.1844 21.3936 78.1699 21.4207 78.1654C21.4479 78.161 21.4757 78.1668 21.4988 78.1819C21.522 78.1914 21.5419 78.2075 21.5562 78.2281C21.5705 78.2488 21.5785 78.2731 21.5793 78.2982C21.5381 78.5245 21.5496 80.5289 20.9119 80.9617C20.8394 81.0095 20.7558 81.0375 20.6693 81.0432C20.5827 81.0488 20.4962 81.0318 20.4182 80.9939C20.2842 80.9599 20.1631 80.8875 20.0697 80.7857C19.9763 80.6838 19.9146 80.5569 19.8923 80.4206C19.8816 80.0304 20.0235 79.6515 20.2877 79.3643ZM20.7428 80.7176C21.0881 80.4958 21.2438 79.4162 21.2787 78.6094C20.5131 79.3544 20.0908 79.9993 20.1543 80.3767C20.1772 80.4599 20.2204 80.5361 20.2801 80.5984C20.3397 80.6607 20.4139 80.7072 20.496 80.7336C20.5344 80.7548 20.578 80.7645 20.6218 80.7616C20.6655 80.7588 20.7075 80.7435 20.7428 80.7176Z" fill="#407BFF"/>
<path d="M21.3387 78.2239C21.3355 78.207 21.3387 78.1895 21.3476 78.1747C21.3691 78.167 21.3922 78.1652 21.4147 78.1692C21.4371 78.1733 21.4581 78.1832 21.4755 78.198C21.5247 78.2069 22.9897 79.0934 23.1176 79.8993C23.1324 80.0043 23.1241 80.1112 23.0934 80.2127C23.0626 80.3142 23.0102 80.4078 22.9396 80.4869C22.8681 80.5776 22.769 80.6426 22.6573 80.6718C22.5456 80.701 22.4273 80.6929 22.3206 80.6488C21.7258 80.3983 21.2224 78.9752 21.2734 78.3035C21.276 78.2856 21.2835 78.2687 21.295 78.2547C21.3065 78.2406 21.3216 78.23 21.3387 78.2239ZM22.7741 80.223C22.8048 80.1773 22.8258 80.1258 22.8356 80.0716C22.8455 80.0174 22.844 79.9618 22.8314 79.9082C22.7563 79.427 22.0086 78.8438 21.5363 78.5343C21.5942 79.2328 21.9056 79.8859 22.4119 80.3706C22.4906 80.3849 22.5988 80.4046 22.724 80.2749L22.7741 80.223Z" fill="#407BFF"/>
<path d="M29.1222 73.5411L26.0467 83.4101C26.0467 83.4101 45.8353 94.3678 57.9394 97.3925C70.0436 100.417 102.582 97.1569 102.582 97.1569L92.0933 76.5881C92.0933 76.5881 61.9946 83.3109 53.9153 81.9634C45.836 80.616 29.1222 73.5411 29.1222 73.5411Z" fill="#263238"/>
<path d="M130.69 78.6375C130.69 78.6375 144.51 91.2237 146.554 92.8964C148.598 94.569 155.588 97.1006 155.588 97.1006C156.44 97.0263 157.298 97.0528 158.145 97.1795C158.99 97.3942 162.753 98.8916 162.753 98.8916C162.753 98.8916 163.077 98.9507 163.18 101.236C163.283 103.521 163.548 106.029 162.546 106.01C161.543 105.99 155.138 103.819 154.671 103.032L154.197 102.235C154.197 102.235 144.429 101.282 142.07 99.836C139.711 98.3905 123.512 87.0286 123.512 87.0286L130.69 78.6375Z" fill="#E4897B"/>
<path d="M136.048 67.9538C135.051 69.5116 133.622 70.7456 131.936 71.5054C129.437 72.6476 126.611 72.8551 123.973 72.0899C121.354 71.342 119.121 69.6193 117.733 67.2758C114.997 62.6515 116.339 58.7384 117.982 51.8818C119.625 45.0252 128.516 42.1904 135.1 47.1789C141.683 52.1675 139.592 62.439 136.048 67.9538Z" fill="#E4897B"/>
<path d="M134.13 42.1745C134.13 42.1745 139.882 41.8993 142.575 46.038C145.268 50.1766 142.79 57.3695 138.307 59.7252C138.307 59.7252 139.62 58.7647 137.869 54.9194C136.119 51.0742 134.13 42.1745 134.13 42.1745Z" fill="#263238"/>
<path opacity="0.2" d="M131.936 71.5054C129.437 72.6476 126.611 72.8551 123.973 72.0899C124.811 71.1178 125.902 70.3979 127.126 70.0105C128.481 71.1016 130.201 71.6361 131.936 71.5054Z" fill="black"/>
<path d="M121.426 62.9568C118.601 65.97 115.556 68.5162 112.448 68.1136C112.955 72.715 114.122 77.2195 115.911 81.489C121.404 82.2442 121.691 78.8812 121.691 78.8812C120.301 74.5628 124.645 71.7447 127.767 70.2288C127.767 70.2288 128.098 68.4087 124.103 64.6125C122.313 62.8844 121.426 62.9568 121.426 62.9568Z" fill="#E4897B"/>
<path d="M116.838 65.3241C116.838 65.3241 112.224 62.3606 113.251 50.7877C114.279 39.2147 126.129 37.5991 137.091 43.6075C148.053 49.616 137.119 64.581 124.922 67.8208C122.023 67.9242 119.174 67.0442 116.838 65.3241Z" fill="#263238"/>
<path d="M132.361 60.5039C132.22 61.9358 132.633 63.3674 133.514 64.5048C134.653 65.901 136.214 64.8027 136.738 62.9263C137.186 61.2492 137.155 58.4586 135.64 57.7868C134.126 57.115 132.517 58.6417 132.361 60.5039Z" fill="#E4897B"/>
<path d="M125.447 72.0328C121.769 69.9003 117.654 81.3487 119.532 85.5526C121.41 89.7565 135.891 97.0352 135.891 97.0352L141.937 87.5439C141.937 87.5439 131.897 75.6859 125.447 72.0328Z" fill="#407BFF"/>
<path opacity="0.6" d="M125.447 72.0328C121.769 69.9003 117.654 81.3487 119.532 85.5526C121.41 89.7565 135.891 97.0352 135.891 97.0352L141.937 87.5439C141.937 87.5439 131.897 75.6859 125.447 72.0328Z" fill="white"/>
<path d="M107.321 59.9239C107.321 59.9239 118.848 64.2768 125.447 72.0327C132.045 79.7887 126.028 93.0357 100.862 98.6228C100.862 98.6228 92.9494 74.1723 71.0874 65.8968C71.0838 65.9165 93.8156 66.2799 107.321 59.9239Z" fill="#407BFF"/>
<path opacity="0.6" d="M107.321 59.9239C107.321 59.9239 118.848 64.2768 125.447 72.0327C132.045 79.7887 126.028 93.0357 100.862 98.6228C100.862 98.6228 92.9494 74.1723 71.0874 65.8968C71.0838 65.9165 93.8156 66.2799 107.321 59.9239Z" fill="white"/>
</svg>
