<svg width="177" height="222" viewBox="0 0 177 222" fill="none" xmlns="http://www.w3.org/2000/svg">
<path d="M5.57637 105.426L3.73483 90.0321C3.08041 89.9143 2.47663 89.6022 2.00217 89.1363C1.52771 88.6704 1.20456 88.0724 1.07483 87.4203C0.557278 84.2186 -0.309332 78.1644 0.111935 77.0812C0.533202 75.9979 7.6466 75.4202 8.83818 76.696C10.0298 77.9719 10.2946 85.1214 10.2946 86.6379C10.2317 87.1483 10.0552 87.6381 9.77821 88.0713C9.50119 88.5045 9.13063 88.8702 8.69375 89.1414L11.6667 104.716L5.57637 105.426Z" fill="#EBB376"/>
<path d="M38.8805 105.788C38.8805 105.788 19.4782 114.213 16.7821 112.034C14.086 109.856 10.9686 92.8727 10.9686 92.8727L2.97656 96.1104C2.97656 96.1104 4.36072 118.859 8.88633 125.334C13.4119 131.81 42.9608 123.902 42.9608 123.902L38.8805 105.788Z" fill="#407BFF"/>
<path opacity="0.5" d="M42.9608 123.902C42.9608 123.902 36.8103 125.551 29.721 126.731C21.2957 128.127 11.3778 128.849 8.92246 125.334C4.39685 118.859 3.0127 96.1104 3.0127 96.1104L11.0047 92.8727C11.0047 92.8727 14.1341 109.904 16.8182 112.034C19.5023 114.165 38.9167 105.788 38.9167 105.788L41.3239 116.68L42.9608 123.902Z" fill="white"/>
<path opacity="0.2" d="M42.9608 123.902C42.9608 123.902 36.8103 125.551 29.721 126.731C32.6699 121.013 39.35 117.583 41.372 116.68L42.9608 123.902Z" fill="black"/>
<path d="M112.855 58.8343L123.688 47.7129C123.368 47.1289 123.23 46.4626 123.292 45.7998C123.355 45.1369 123.614 44.5079 124.037 43.9936C126.203 41.5864 130.356 37.0728 131.463 36.7719C132.57 36.471 137.481 41.5864 137.264 43.2956C137.048 45.0047 131.631 49.759 130.464 50.6978C130.029 50.9712 129.538 51.1434 129.028 51.2018C128.517 51.2601 128 51.203 127.515 51.0348L117.224 63.0951L112.855 58.8343Z" fill="#EBB376"/>
<path d="M85.7374 84.3992C94.4276 76.1664 121.268 49.109 121.268 49.109L126.648 55.5484L86.6642 109.134L85.7374 84.3992Z" fill="#407BFF"/>
<path opacity="0.5" d="M126.648 55.5484L95.2581 97.6751L87.6993 107.81L86.6642 109.194L86.3994 101.972L86.1346 94.8947L85.7374 84.4353C94.4276 76.2025 121.268 49.1451 121.268 49.1451L126.648 55.5484Z" fill="white"/>
<path opacity="0.2" d="M95.2581 97.6149L87.6994 107.749L86.3995 101.936L84.8708 95.0873C85.2668 94.9737 85.6686 94.8813 86.0745 94.8105C88.3373 94.4975 92.6101 94.2809 95.2581 97.6149Z" fill="black"/>
<path d="M46.7883 165.343C46.7883 165.343 32.8745 148.239 17.5765 157.928C2.27847 167.617 28.71 217.953 88.5178 210.346C148.326 202.739 147.989 154.811 136.855 147.998C125.722 141.186 101.445 160.685 101.445 160.685L46.7883 165.343Z" fill="#407BFF"/>
<path opacity="0.5" d="M142.5 166.703C140.948 183.349 127.503 205.399 88.578 210.358C67.1054 213.078 49.9539 208.348 37.4723 200.729C15.1572 187.092 7.8031 164.163 17.6126 157.94C32.9347 148.311 46.8365 165.355 46.8365 165.355L101.493 160.697C101.493 160.697 125.782 141.198 136.903 148.011C140.743 150.37 143.307 157.772 142.5 166.703Z" fill="white"/>
<path opacity="0.2" d="M142.5 166.703C140.948 183.349 127.503 205.399 88.578 210.358C67.1054 213.078 49.9539 208.348 37.4723 200.729C26.0981 190.98 28.5896 178.859 28.5896 178.859C28.5896 178.859 37.5205 155.377 53.5768 164.789C69.633 174.201 101.493 184.444 101.493 184.444C101.493 184.444 106.608 184.444 119.343 161.575C124.301 152.572 136.59 158.879 142.5 166.703Z" fill="black"/>
<path d="M105.645 160.528C105.645 160.528 87.4346 104.163 85.7375 84.3992C85.7375 84.3992 72.3171 97.0493 65.2037 97.9159C46.7883 100.155 38.8806 105.788 38.8806 105.788C38.8806 105.788 38.4352 139.2 45.344 169.916L105.645 160.528Z" fill="#407BFF"/>
<path opacity="0.6" d="M105.645 160.528C105.645 160.528 87.4346 104.163 85.7375 84.3992C85.7375 84.3992 72.3171 97.0493 65.2037 97.9159C46.7883 100.155 38.8806 105.788 38.8806 105.788C38.8806 105.788 38.4352 139.2 45.344 169.916L105.645 160.528Z" fill="white"/>
<path opacity="0.2" d="M54.0943 100.323C54.0943 100.323 50.1585 103.85 50.3872 105.727C51.0853 111.517 64.9269 120.881 64.9269 120.881L68.1526 112.769L71.619 113.009L75.3141 108.833L86.6643 109.134C86.6643 109.134 82.0303 84.002 54.0943 100.323Z" fill="black"/>
<path d="M57.2598 97.3742C57.2598 97.3742 51.663 104.331 50.3872 105.727C49.1113 107.124 64.638 117.318 64.638 117.318L67.8517 109.206L71.3181 109.435L75.0253 105.258L83.5709 105.499C83.5709 105.499 79.5629 87.1795 57.2598 97.3742Z" fill="#407BFF"/>
<path opacity="0.6" d="M57.2598 97.3742C57.2598 97.3742 51.663 104.331 50.3872 105.727C49.1113 107.124 64.638 117.318 64.638 117.318L67.8517 109.206L71.3181 109.435L75.0253 105.258L83.5709 105.499C83.5709 105.499 79.5629 87.1795 57.2598 97.3742Z" fill="white"/>
<path d="M71.4866 93.0893C71.2945 94.1838 71.3233 95.3057 71.5713 96.3888C71.8194 97.472 72.2816 98.4945 72.9309 99.3963C73.1612 99.7197 73.4104 100.029 73.6772 100.323C74.1054 100.756 74.564 101.159 75.0493 101.527L70.7644 107.774L56.321 103.537L54.7442 103.067C55.8471 101.164 56.5362 99.0487 56.7664 96.8607C56.9966 94.6727 56.7628 92.4607 56.0803 90.3691C55.4033 88.2183 54.3919 86.1874 53.0833 84.351L67.2378 86.662L73.6651 87.673C72.5615 89.3027 71.8187 91.1494 71.4866 93.0893Z" fill="#EBB376"/>
<path opacity="0.2" d="M71.4866 93.0893C71.2944 94.1838 71.3232 95.3057 71.5713 96.3888C71.8194 97.472 72.2816 98.4945 72.9309 99.3963C73.1612 99.7196 73.4104 100.029 73.6772 100.323C65.974 100.504 59.5106 94.4133 56.1043 90.4052C55.4273 88.2544 54.4159 86.2235 53.1073 84.3871L67.2378 86.662L73.6651 87.673C72.5615 89.3027 71.8187 91.1493 71.4866 93.0893Z" fill="black"/>
<path opacity="0.2" d="M75.9039 118.618C75.9062 118.879 75.831 119.134 75.6878 119.352C75.5445 119.569 75.3398 119.739 75.0996 119.84C74.8594 119.941 74.5946 119.968 74.339 119.917C74.0834 119.867 73.8485 119.742 73.6643 119.558C73.4801 119.374 73.3549 119.139 73.3047 118.883C73.2544 118.628 73.2814 118.363 73.3822 118.123C73.483 117.882 73.653 117.678 73.8706 117.534C74.0882 117.391 74.3435 117.316 74.6039 117.318C74.9487 117.318 75.2793 117.455 75.5231 117.699C75.7669 117.943 75.9039 118.273 75.9039 118.618Z" fill="black"/>
<path opacity="0.2" d="M79.4906 135.794C79.493 136.054 79.4178 136.31 79.2746 136.527C79.1313 136.745 78.9266 136.915 78.6864 137.016C78.4461 137.116 78.1814 137.143 77.9258 137.093C77.6701 137.043 77.4353 136.918 77.2511 136.733C77.0669 136.549 76.9417 136.314 76.8915 136.059C76.8412 135.803 76.8682 135.538 76.969 135.298C77.0698 135.058 77.2398 134.853 77.4574 134.71C77.675 134.567 77.9303 134.491 78.1908 134.494C78.5345 134.497 78.8634 134.635 79.1065 134.878C79.3496 135.121 79.4875 135.45 79.4906 135.794Z" fill="black"/>
<path opacity="0.2" d="M84.8708 154.065C84.8732 154.325 84.798 154.581 84.6548 154.798C84.5115 155.016 84.3068 155.186 84.0665 155.286C83.8263 155.387 83.5616 155.414 83.3059 155.364C83.0503 155.314 82.8155 155.189 82.6313 155.004C82.4471 154.82 82.3219 154.585 82.2716 154.33C82.2214 154.074 82.2484 153.809 82.3492 153.569C82.45 153.329 82.62 153.124 82.8376 152.981C83.0551 152.838 83.3104 152.762 83.5709 152.765C83.9147 152.768 84.2435 152.906 84.4866 153.149C84.7297 153.392 84.8677 153.721 84.8708 154.065Z" fill="black"/>
<path d="M92.6101 187.441C91.9941 188.129 91.3039 188.747 90.5519 189.283C90.5151 189.309 90.4709 189.323 90.4255 189.323C90.3802 189.323 90.336 189.309 90.2992 189.283C90.2581 189.26 90.2241 189.227 90.2007 189.187C90.1773 189.147 90.1656 189.101 90.1668 189.054C90.1668 188.657 90.588 185.154 91.7676 184.504C91.9023 184.431 92.0533 184.392 92.2069 184.392C92.3604 184.392 92.5115 184.431 92.6462 184.504C92.8781 184.58 93.0816 184.723 93.2299 184.917C93.3782 185.11 93.4643 185.344 93.4767 185.588C93.4388 186.294 93.1282 186.959 92.6101 187.441ZM92.0324 185.034C91.3945 185.371 90.9491 187.224 90.7565 188.645C92.2129 187.441 93.0434 186.406 93.0073 185.732C92.9839 185.582 92.9216 185.441 92.8266 185.323C92.7315 185.204 92.6071 185.113 92.4657 185.058C92.3998 185.02 92.3251 185 92.249 185C92.173 185 92.0983 185.02 92.0324 185.058V185.034Z" fill="#407BFF"/>
<path d="M90.7445 186.743C90.9508 187.647 91.0558 188.572 91.0575 189.499C91.063 189.545 91.053 189.591 91.0289 189.631C91.0049 189.67 90.9683 189.7 90.9251 189.716C90.8838 189.736 90.8386 189.747 90.7927 189.747C90.7468 189.747 90.7015 189.736 90.6603 189.716C90.3594 189.451 87.7234 187.104 87.892 185.768C87.9103 185.617 87.9676 185.473 88.0584 185.351C88.1491 185.228 88.2701 185.131 88.4095 185.07C88.615 184.941 88.8528 184.872 89.0956 184.872C89.3383 184.872 89.5762 184.941 89.7816 185.07C90.2913 185.495 90.6327 186.089 90.7445 186.743ZM88.4095 185.792C88.3132 186.502 89.6131 187.959 90.6001 188.922C90.5038 187.056 90.1186 185.768 89.5409 185.407C89.4062 185.333 89.2551 185.295 89.1016 185.295C88.948 185.295 88.797 185.333 88.6623 185.407C88.5959 185.442 88.5385 185.491 88.4946 185.552C88.4508 185.612 88.4216 185.682 88.4095 185.756V185.792Z" fill="#407BFF"/>
<path d="M88.915 189.078L81.4406 197.864C81.3732 197.932 81.3198 198.011 81.2834 198.099C81.2469 198.187 81.2281 198.281 81.2281 198.376C81.2281 198.471 81.2469 198.565 81.2834 198.653C81.3198 198.741 81.3732 198.82 81.4406 198.887L88.0364 205.231C88.2154 205.386 88.4233 205.504 88.6481 205.578C88.8729 205.652 89.1102 205.681 89.3463 205.663C89.5824 205.646 89.8127 205.581 90.0237 205.474C90.2348 205.366 90.4225 205.218 90.576 205.038C93.1397 201.933 94.1869 200.32 97.4607 196.432C99.4708 194.025 103.671 189.547 105.886 185.864C108.101 182.181 104.43 180.075 103.154 181.435C100.121 184.649 94.0545 187.369 90.4436 188.103C89.8413 188.252 89.3044 188.595 88.915 189.078Z" fill="#263238"/>
<path d="M126.853 207.361C126.136 206.777 125.486 206.115 124.915 205.387C124.892 205.347 124.88 205.301 124.88 205.255C124.88 205.208 124.892 205.163 124.915 205.122C124.94 205.084 124.974 205.051 125.014 205.028C125.053 205.005 125.098 204.992 125.144 204.99C125.541 204.99 129.056 205.243 129.754 206.398C129.831 206.532 129.872 206.683 129.872 206.837C129.872 206.992 129.831 207.143 129.754 207.277C129.681 207.507 129.543 207.713 129.358 207.868C129.172 208.024 128.947 208.123 128.707 208.155C128.01 208.135 127.348 207.851 126.853 207.361ZM129.26 206.687C128.887 206.061 127.01 205.688 125.65 205.556C126.853 206.964 127.973 207.746 128.647 207.674C128.797 207.645 128.936 207.578 129.053 207.479C129.169 207.38 129.257 207.252 129.309 207.108C129.344 207.044 129.363 206.971 129.363 206.898C129.363 206.824 129.344 206.751 129.309 206.687H129.26Z" fill="#407BFF"/>
<path d="M127.395 205.423C126.503 205.666 125.586 205.807 124.663 205.844C124.617 205.85 124.57 205.841 124.53 205.82C124.489 205.798 124.455 205.765 124.434 205.724C124.414 205.683 124.403 205.638 124.403 205.592C124.403 205.546 124.414 205.501 124.434 205.459C124.687 205.146 126.913 202.414 128.261 202.522C128.413 202.54 128.558 202.594 128.683 202.68C128.809 202.766 128.912 202.881 128.984 203.016C129.125 203.213 129.209 203.446 129.226 203.688C129.243 203.931 129.192 204.173 129.08 204.388C128.665 204.929 128.065 205.297 127.395 205.423ZM128.249 203.016C127.539 202.956 126.143 204.22 125.216 205.339C127.082 205.158 128.358 204.725 128.683 204.135C128.746 203.997 128.772 203.844 128.759 203.693C128.747 203.541 128.696 203.395 128.61 203.269C128.577 203.199 128.527 203.139 128.463 203.095C128.4 203.05 128.326 203.023 128.249 203.016Z" fill="#407BFF"/>
<path d="M125 203.738L115.912 196.637C115.762 196.514 115.571 196.454 115.378 196.469C115.184 196.485 115.005 196.575 114.877 196.721L108.859 203.57C108.566 203.947 108.432 204.424 108.486 204.898C108.54 205.373 108.778 205.807 109.148 206.109C112.361 208.516 114.022 209.528 118.043 212.621C120.45 214.535 125.18 218.543 128.947 220.625C132.715 222.707 134.677 218.916 133.268 217.7C129.922 214.811 126.949 208.853 126.047 205.279C125.881 204.662 125.512 204.119 125 203.738Z" fill="#263238"/>
<path d="M23.6186 155.389C38.5315 147.686 90.2631 187.513 90.2631 187.513L83.5228 201.8C83.5228 201.8 29.9376 187.176 23.5705 178.775C16.1923 168.966 12.9786 160.877 23.6186 155.389Z" fill="#407BFF"/>
<path opacity="0.5" d="M23.6186 155.389C38.5315 147.686 90.2631 187.513 90.2631 187.513L83.5228 201.8C83.5228 201.8 29.9376 187.176 23.5705 178.775C16.1923 168.966 12.9786 160.877 23.6186 155.389Z" fill="white"/>
<path d="M142.5 151.284C151.84 162.695 127.455 205.447 127.455 205.447L112.097 197.876C112.097 197.876 119.848 162.972 123.724 153.764C128.454 142.39 137.397 145.11 142.5 151.284Z" fill="#407BFF"/>
<path opacity="0.5" d="M142.5 151.284C151.84 162.695 127.455 205.447 127.455 205.447L112.097 197.876C112.097 197.876 119.848 162.972 123.724 153.764C128.454 142.39 137.397 145.11 142.5 151.284Z" fill="white"/>
<path d="M158.003 26.2884C158.003 26.2884 171.411 25.6385 173.65 38.6616L169.883 39.3116C169.883 39.3116 169.786 31.9093 158.869 31.3196L158.003 26.2884Z" fill="#263238"/>
<path d="M171.387 37.3858C170.388 37.5573 169.492 38.1018 168.88 38.9092C168.267 39.7165 167.984 40.7264 168.088 41.7344C168.193 42.7423 168.676 43.6731 169.44 44.3384C170.204 45.0037 171.193 45.3537 172.206 45.3177L172.037 44.3187C171.447 44.2864 170.89 44.0386 170.471 43.6223C170.053 43.206 169.801 42.6503 169.766 42.0609C169.73 41.4715 169.912 40.8895 170.277 40.4256C170.643 39.9617 171.166 39.6483 171.747 39.5449C172.328 39.4416 172.928 39.5555 173.43 39.8651C173.933 40.1746 174.305 40.6582 174.474 41.2239C174.644 41.7895 174.6 42.3977 174.35 42.9328C174.1 43.4679 173.663 43.8926 173.12 44.1261L173.289 45.1371C174.269 44.8417 175.099 44.1814 175.606 43.2923C176.114 42.4032 176.261 41.3532 176.017 40.3589C175.773 39.3646 175.157 38.5019 174.295 37.9487C173.434 37.3955 172.393 37.194 171.387 37.3858Z" fill="#407BFF"/>
<path d="M124.578 32.0297C124.578 32.0297 111.712 35.8812 113.95 48.8803L117.718 48.2304C117.718 48.2304 115.31 41.2374 125.445 37.0247L124.578 32.0297Z" fill="#263238"/>
<path d="M115.672 46.9425C116.669 46.7748 117.693 46.9918 118.537 47.5496C119.381 48.1074 119.982 48.9646 120.219 49.9482C120.456 50.9318 120.311 51.9685 119.813 52.8493C119.315 53.7301 118.502 54.3893 117.537 54.6939L117.369 53.6948C117.916 53.4732 118.362 53.0585 118.623 52.5293C118.885 52.0001 118.942 51.3934 118.786 50.8245C118.629 50.2555 118.269 49.764 117.773 49.4432C117.278 49.1224 116.682 48.9948 116.099 49.0845C115.515 49.1742 114.985 49.4751 114.609 49.9299C114.233 50.3848 114.038 50.9619 114.059 51.5516C114.081 52.1414 114.318 52.7027 114.726 53.1288C115.134 53.555 115.685 53.8164 116.273 53.8634L116.454 54.8744C115.445 54.8992 114.465 54.5417 113.709 53.8735C112.953 53.2052 112.478 52.2758 112.379 51.2718C112.28 50.2678 112.564 49.2635 113.175 48.4605C113.786 47.6575 114.678 47.1152 115.672 46.9425Z" fill="#407BFF"/>
<path d="M141.094 46.0087L133.253 47.3546L135.332 59.4665L143.173 58.1205L141.094 46.0087Z" fill="#263238"/>
<path d="M135.225 58.0487L142.781 56.7516C143.185 56.6823 143.598 56.6932 143.997 56.7836C144.397 56.874 144.774 57.0422 145.108 57.2785C145.443 57.5148 145.727 57.8147 145.946 58.161C146.164 58.5072 146.312 58.8931 146.381 59.2966L146.624 60.7083L132.922 63.0602L132.68 61.6485C132.54 60.8336 132.73 59.9966 133.207 59.3215C133.684 58.6464 134.41 58.1885 135.225 58.0487Z" fill="#407BFF"/>
<path d="M154.949 43.6389L147.108 44.9849L149.187 57.0967L157.028 55.7508L154.949 43.6389Z" fill="#263238"/>
<path d="M149.089 55.6651L156.646 54.368C157.461 54.2281 158.298 54.4177 158.973 54.895C159.648 55.3722 160.106 56.0981 160.246 56.913L160.488 58.3247L146.787 60.6765L146.544 59.2649C146.404 58.45 146.594 57.613 147.071 56.9379C147.549 56.2628 148.274 55.8049 149.089 55.6651Z" fill="#407BFF"/>
<path d="M138.6 6.83792L136.446 0.964264L136.374 7.21105L138.6 6.83792Z" fill="#263238"/>
<path d="M137.409 0.79576C137.444 0.98607 137.423 1.18266 137.346 1.36049C137.269 1.53832 137.142 1.68932 136.979 1.79425C136.816 1.89919 136.626 1.9533 136.432 1.9497C136.239 1.9461 136.051 1.88496 135.892 1.77405C135.733 1.66314 135.611 1.50748 135.541 1.32694C135.471 1.14639 135.457 0.949115 135.5 0.760259C135.542 0.571403 135.64 0.399504 135.781 0.266495C135.921 0.133486 136.099 0.0453769 136.289 0.013396C136.541 -0.028788 136.8 0.0295434 137.009 0.175841C137.218 0.322139 137.362 0.544734 137.409 0.79576Z" fill="#407BFF"/>
<path d="M133.864 4.90674L140.21 3.81735C142.038 3.50358 143.916 3.9288 145.431 4.99948C146.945 6.07016 147.972 7.69858 148.286 9.52651L150.558 22.7653L130.392 26.2269L128.121 13C127.964 12.0912 127.987 11.1601 128.191 10.2605C128.395 9.3609 128.774 8.51048 129.308 7.75822C129.842 7.00596 130.519 6.36673 131.301 5.87735C132.083 5.38797 132.954 5.0581 133.864 4.90674Z" fill="#407BFF"/>
<path d="M151.345 17.8064L128.011 21.8117C124.185 22.4684 121.616 26.1026 122.273 29.9287L124.627 43.642C125.284 47.4681 128.918 50.0374 132.744 49.3806L156.078 45.3753C159.904 44.7185 162.473 41.0844 161.816 37.2583L159.462 23.545C158.806 19.7189 155.172 17.1496 151.345 17.8064Z" fill="#263238"/>
<path opacity="0.2" d="M151.345 17.8064L128.011 21.8117C124.185 22.4684 121.616 26.1026 122.273 29.9287L124.627 43.642C125.284 47.4681 128.918 50.0374 132.744 49.3806L156.078 45.3753C159.904 44.7185 162.473 41.0844 161.816 37.2583L159.462 23.545C158.806 19.7189 155.172 17.1496 151.345 17.8064Z" fill="white"/>
<path opacity="0.5" d="M143.848 12.8079C143.911 12.9879 143.933 13.1794 143.914 13.369C143.895 13.5585 143.834 13.7417 143.737 13.9056C143.64 14.0696 143.509 14.2104 143.352 14.3183C143.195 14.4262 143.016 14.4987 142.828 14.5306C142.64 14.5625 142.448 14.5531 142.264 14.503C142.08 14.453 141.909 14.3635 141.764 14.2408C141.618 14.1181 141.5 13.9651 141.42 13.7925C141.339 13.6198 141.297 13.4317 141.297 13.2412C141.269 12.9141 141.365 12.5886 141.566 12.3289C141.766 12.0692 142.057 11.894 142.38 11.8381C142.704 11.7822 143.036 11.8495 143.313 12.0268C143.589 12.2041 143.788 12.4785 143.872 12.7959L143.848 12.8079Z" fill="white"/>
<path opacity="0.5" d="M136.001 14.1559C136.044 14.4092 136.012 14.6697 135.908 14.9046C135.804 15.1395 135.632 15.3383 135.415 15.4757C135.198 15.6131 134.945 15.6831 134.688 15.6768C134.431 15.6705 134.182 15.5882 133.971 15.4402C133.761 15.2923 133.6 15.0854 133.507 14.8456C133.415 14.6059 133.395 14.3441 133.451 14.0933C133.507 13.8425 133.637 13.614 133.823 13.4366C134.009 13.2592 134.243 13.141 134.496 13.0968C134.664 13.0674 134.837 13.0715 135.004 13.1088C135.17 13.1461 135.328 13.216 135.468 13.3144C135.608 13.4127 135.727 13.5377 135.818 13.6821C135.91 13.8265 135.972 13.9875 136.001 14.1559Z" fill="white"/>
<path opacity="0.5" d="M141.807 16.3365L136.528 17.2426L136.778 18.7017L142.057 17.7956L141.807 16.3365Z" fill="white"/>
<path d="M149.339 24.1328L132.043 27.1017C131.447 27.204 131.047 27.7703 131.149 28.3665L132.833 38.177C132.935 38.7732 133.502 39.1735 134.098 39.0711L151.394 36.1023C151.99 35.9999 152.39 35.4337 152.288 34.8375L150.604 25.027C150.501 24.4308 149.935 24.0305 149.339 24.1328Z" fill="#407BFF"/>
<path d="M138.107 41.9836C138.138 42.2609 138.062 42.5395 137.894 42.7626C137.727 42.9856 137.48 43.1363 137.205 43.1839C136.93 43.2315 136.648 43.1725 136.415 43.0187C136.182 42.865 136.017 42.6283 135.952 42.3568C135.922 42.0795 135.998 41.8009 136.165 41.5778C136.333 41.3548 136.579 41.2041 136.854 41.1564C137.129 41.1088 137.412 41.1679 137.645 41.3217C137.877 41.4754 138.043 41.7121 138.107 41.9836Z" fill="#407BFF"/>
<path d="M144.414 40.9244C144.449 41.2011 144.376 41.4807 144.21 41.7049C144.044 41.9291 143.798 42.0807 143.523 42.1281C143.247 42.1601 142.969 42.0859 142.745 41.9205C142.522 41.7551 142.37 41.5109 142.32 41.2374C142.274 40.9522 142.341 40.6604 142.508 40.4243C142.674 40.1882 142.926 40.0264 143.21 39.9736C143.495 39.9429 143.781 40.0253 144.006 40.2031C144.231 40.3809 144.378 40.6399 144.414 40.9244Z" fill="#407BFF"/>
<path d="M150.733 39.8171C150.757 39.9594 150.753 40.1051 150.72 40.2457C150.688 40.3864 150.628 40.5192 150.544 40.6367C150.46 40.7541 150.354 40.8538 150.232 40.9301C150.109 41.0063 149.973 41.0576 149.83 41.0809C149.553 41.1191 149.272 41.0473 149.047 40.8808C148.822 40.7144 148.671 40.4665 148.627 40.1903C148.578 39.9046 148.644 39.6112 148.811 39.3743C148.978 39.1375 149.232 38.9764 149.517 38.9264C149.795 38.8941 150.074 38.9679 150.3 39.1331C150.525 39.2983 150.68 39.5426 150.733 39.8171Z" fill="#407BFF"/>
<path d="M66.0823 47.2073C66.0823 47.2073 83.7756 53.8513 72.63 71.4001C60.0402 91.2237 66.0823 47.2073 66.0823 47.2073Z" fill="#263238"/>
<path d="M38.9888 77.4663C43.3941 87.8656 53.4323 97.6149 62.8326 96.1826C80.0443 93.5708 85.3282 88.2869 82.9932 75.6489C80.9591 64.2506 71.2579 48.435 56.7783 49.8553C42.2988 51.2756 32.9707 63.047 38.9888 77.4663Z" fill="#EBB376"/>
<path d="M70.1265 53.755C65.6643 57.2205 60.3423 59.4051 54.7322 60.074C54.7322 60.074 48.6058 63.3479 52.5175 70.1724C56.4293 76.9969 49.2918 83.8696 52.2768 93.655C52.2768 93.655 41.7692 95.8817 33.0189 75.2276C26.6036 60.1824 37.9537 49.6146 51.8074 45.1371C63.3621 41.4781 74.3391 46.9425 70.1265 53.755Z" fill="#263238"/>
<path d="M64.4334 72.2186C64.9389 73.5546 66.0823 74.3851 66.9489 74.0361C67.8156 73.687 68.1526 72.3269 67.5989 70.9909C67.0452 69.6549 65.9499 68.8485 65.0713 69.1855C64.1927 69.5225 63.9158 70.8826 64.4334 72.2186Z" fill="#263238"/>
<path d="M74.9169 67.5606C75.3984 68.8364 76.4937 69.6187 77.3242 69.2817C78.1547 68.9447 78.4315 67.6568 77.938 66.381C77.4445 65.1052 76.3613 64.3348 75.5308 64.6478C74.7003 64.9607 74.4235 66.2727 74.9169 67.5606Z" fill="#263238"/>
<path d="M65.6731 64.0099C65.7453 63.895 65.7791 63.7601 65.7694 63.6247C65.7344 63.4571 65.6359 63.3096 65.4945 63.2131C65.3531 63.1166 65.1799 63.0786 65.0111 63.1071C63.998 63.2643 63.0382 63.6652 62.2142 64.2753C61.3903 64.8854 60.7268 65.6865 60.2809 66.6097C60.2475 66.6878 60.2301 66.7718 60.2296 66.8567C60.2292 66.9417 60.2457 67.0259 60.2782 67.1044C60.3107 67.1829 60.3586 67.2541 60.419 67.3138C60.4794 67.3735 60.5511 67.4206 60.6299 67.4522C60.7871 67.511 60.9606 67.5091 61.1164 67.4467C61.2722 67.3844 61.3992 67.2662 61.4724 67.1152C61.8403 66.3841 62.3814 65.754 63.0485 65.2799C63.7156 64.8058 64.4885 64.502 65.3 64.395C65.386 64.3611 65.4638 64.3092 65.5281 64.2427C65.5924 64.1763 65.6419 64.0969 65.6731 64.0099Z" fill="#263238"/>
<path d="M76.3011 60.5434C76.4191 60.4757 76.5152 60.3754 76.5779 60.2546C76.6245 60.0901 76.607 59.9142 76.5288 59.7622C76.4506 59.6103 76.3176 59.4937 76.1567 59.4361C75.1899 59.0909 74.1538 58.985 73.1372 59.1276C72.1206 59.2701 71.1537 59.6568 70.3191 60.2546C70.1884 60.3627 70.1052 60.5177 70.0872 60.6863C70.0692 60.855 70.1179 61.024 70.2228 61.1573C70.3326 61.2847 70.4861 61.3665 70.6531 61.3866C70.8202 61.4066 70.9887 61.3635 71.1255 61.2656C71.7994 60.7989 72.5768 60.5035 73.3906 60.4049C74.2043 60.3063 75.0298 60.4076 75.7956 60.6999C75.8861 60.7107 75.9779 60.7024 76.065 60.6754C76.1521 60.6485 76.2325 60.6035 76.3011 60.5434Z" fill="#263238"/>
<path d="M73.4244 69.9196L74.2188 76.1183C75.7638 75.932 77.2159 75.2815 78.3833 74.2527C76.4787 73.1246 74.7978 71.6558 73.4244 69.9196Z" fill="#D58745"/>
<path d="M53.2638 79.8254C53.2638 79.8254 48.1003 74.3249 45.4884 77.5867C42.8766 80.8485 47.4624 91.4765 52.4574 89.6229C57.4524 87.7693 56.7784 82.5095 53.2638 79.8254Z" fill="#EBB376"/>
<path d="M76.0724 79.9578C75.6938 81.6505 75.4364 83.368 75.3021 85.0973C75.0012 85.0973 74.6882 85.1575 74.3873 85.1695C70.2469 85.4825 68.2248 84.2548 67.2378 82.7623C66.7644 82.0418 66.4788 81.2142 66.4073 80.3551C66.3366 79.8762 66.3366 79.3896 66.4073 78.9107C68.6942 80.0541 72.5819 80.1143 74.6521 79.994C75.5308 80.018 76.0724 79.9578 76.0724 79.9578Z" fill="#263238"/>
<path d="M74.6641 80.0421L74.3993 81.5466C70.4996 81.8235 67.7072 81.5466 66.4073 80.4032C66.3366 79.9243 66.3366 79.4377 66.4073 78.9589C68.7062 80.1023 72.5939 80.1143 74.6641 80.0421Z" fill="white"/>
<path d="M74.3873 85.1695C70.2468 85.4825 68.2248 84.2548 67.2378 82.7623C68.8164 82.676 70.3978 82.8716 71.9078 83.34C72.9046 83.677 73.7713 84.3165 74.3873 85.1695Z" fill="#DE5753"/>
<path d="M66.4435 49.0248C72.7263 48.423 73.2078 56.1502 66.3111 59.6046L67.623 56.8122C67.623 56.8122 62.9529 62.2285 57.2598 61.7952C57.2598 61.7952 59.6671 60.4351 59.8356 56.4872C59.8495 54.6549 60.5264 52.8896 61.7411 51.5177C62.9559 50.1459 64.6263 49.2603 66.4435 49.0248Z" fill="#263238"/>
</svg>
