<svg width="196" height="312" viewBox="0 0 196 312" fill="none" xmlns="http://www.w3.org/2000/svg">
<path d="M92.8535 97.8759C88.1353 95.6612 74.4381 66.8225 72.2836 50.7181L67.108 54.1243C67.108 54.1243 69.8884 94.578 86.3058 116.508C102.723 138.438 92.8535 97.8759 92.8535 97.8759Z" fill="#EBB376"/>
<path d="M99.2808 99.7535C99.2808 99.7535 95.3089 132.492 83.2968 121.948C82.4605 121.204 81.6801 120.4 80.9617 119.541C77.074 115.052 74.1612 108.817 72.0549 102.835C69.937 96.7076 68.3504 90.4095 67.3127 84.0102L82.7311 76.7885C82.7311 76.7885 89.9648 93.7475 99.2808 99.7535Z" fill="#263238"/>
<path d="M135.113 106.722C140.3 107.252 166.876 89.5348 176.987 76.8246L179.671 82.3973C179.671 82.3973 156.477 115.689 131.201 126.077C105.925 136.464 135.113 106.722 135.113 106.722Z" fill="#EBB376"/>
<path d="M128.637 105.037C139.71 104.664 154.611 93.8558 154.611 93.8558L164.144 107.974C164.144 107.974 146.679 129.399 130.96 132.287C115.241 135.176 128.637 105.037 128.637 105.037Z" fill="#263238"/>
<path d="M133.223 131.481C132.838 137.114 132.26 143.421 131.405 150.017C130.491 157.238 129.263 164.701 127.602 172.067L67.3127 162.679C67.3127 162.679 80.9858 128.977 82.6829 109.178C82.8785 106.882 83.8446 104.719 85.4243 103.041C87.0041 101.363 89.1047 100.268 91.3851 99.9341C96.82 99.2655 102.319 99.31 107.742 100.066C126.158 102.305 134.077 107.938 134.077 107.938C134.077 107.938 134.21 117.687 133.223 131.481Z" fill="#263238"/>
<path d="M107.477 94.1688C107.55 95.2776 107.402 96.3897 107.042 97.4412C106.683 98.4926 106.119 99.4626 105.383 100.295C105.118 100.572 104.842 100.861 104.541 101.126C104.074 101.531 103.574 101.897 103.048 102.221C104.093 104.159 105.726 105.715 107.711 106.666C109.696 107.618 111.932 107.916 114.097 107.517L121.439 106.169L123.052 105.868C122.149 103.862 121.682 101.688 121.682 99.4888C121.682 97.2894 122.149 95.1151 123.052 93.1096C123.941 91.0366 125.16 89.1219 126.663 87.4405L112.364 88.1747L105.853 88.4997C106.793 90.2517 107.347 92.1847 107.477 94.1688Z" fill="#EBB376"/>
<path opacity="0.2" d="M107.477 94.1688C107.55 95.2776 107.402 96.3897 107.042 97.4412C106.683 98.4926 106.119 99.4626 105.383 100.295C105.118 100.572 104.842 100.861 104.541 101.126C112.172 102.125 119.237 96.7325 123.052 93.1096C123.941 91.0366 125.16 89.1219 126.663 87.4405L112.364 88.1747L105.853 88.4997C106.793 90.2517 107.347 92.1847 107.477 94.1688Z" fill="black"/>
<path d="M160.473 60.9488C160.345 62.1654 159.859 63.3168 159.077 64.2574C158.295 65.198 157.251 65.8856 156.079 66.2332C154.906 66.5809 153.656 66.5731 152.488 66.2108C151.319 65.8485 150.285 65.1479 149.514 64.1976C148.744 63.2473 148.273 62.0899 148.16 60.8719C148.047 59.6538 148.298 58.4296 148.881 57.3541C149.464 56.2786 150.352 55.4 151.434 54.8294C152.517 54.2588 153.744 54.0218 154.96 54.1484C155.769 54.2325 156.553 54.4752 157.268 54.8626C157.983 55.2499 158.614 55.7744 159.126 56.406C159.638 57.0376 160.021 57.7639 160.252 58.5434C160.483 59.3229 160.558 60.1403 160.473 60.9488Z" fill="#263238"/>
<path d="M109.933 48.6358C109.933 48.6358 92.8294 56.676 105.347 73.2739C119.49 92.0504 109.933 48.6358 109.933 48.6358Z" fill="#263238"/>
<path d="M139.313 76.632C135.702 87.3442 126.519 97.8639 117.058 97.2019C99.678 95.9982 93.9969 91.1838 95.2969 78.3411C96.4162 66.8225 104.817 50.2727 119.369 50.5255C133.921 50.7783 144.26 61.7673 139.313 76.632Z" fill="#EBB376"/>
<path d="M106.43 55.4844C111.153 58.5794 116.628 60.3311 122.27 60.5517C122.27 60.5517 128.649 63.32 125.291 70.4334C121.933 77.5468 129.6 83.8297 127.409 93.8197C127.409 93.8197 138.061 95.2039 145.187 73.9118C150.374 58.3972 138.206 48.7803 124.039 45.4703C112.184 42.702 101.688 49.0812 106.43 55.4844Z" fill="#263238"/>
<path d="M113.58 73.4304C113.183 74.8025 112.111 75.7173 111.173 75.4284C110.234 75.1395 109.885 73.8276 110.294 72.4554C110.703 71.0833 111.762 70.1926 112.701 70.4454C113.64 70.6982 113.989 72.0582 113.58 73.4304Z" fill="#263238"/>
<path d="M102.759 69.6269C102.374 70.9389 101.351 71.8055 100.496 71.5407C99.6419 71.2759 99.2928 70.0121 99.6419 68.7002C99.9909 67.3882 101.05 66.5336 101.917 66.7744C102.783 67.0151 103.144 68.315 102.759 69.6269Z" fill="#263238"/>
<path d="M111.678 65.3541C111.603 65.2441 111.561 65.1144 111.558 64.981C111.576 64.8105 111.661 64.6541 111.794 64.5459C111.927 64.4376 112.097 64.3864 112.268 64.4032C113.292 64.4762 114.282 64.797 115.155 65.338C116.027 65.8789 116.755 66.6239 117.275 67.5086C117.314 67.5842 117.337 67.6669 117.344 67.7518C117.351 67.8367 117.34 67.922 117.313 68.0028C117.286 68.0835 117.243 68.1581 117.187 68.222C117.131 68.286 117.063 68.3381 116.986 68.3752C116.832 68.4446 116.657 68.4535 116.496 68.3999C116.336 68.3464 116.201 68.2345 116.119 68.0863C115.691 67.3895 115.101 66.8066 114.399 66.3874C113.697 65.9682 112.904 65.7252 112.087 65.6791C111.914 65.6278 111.767 65.5113 111.678 65.3541Z" fill="#263238"/>
<path d="M100.858 62.7543C100.739 62.6882 100.64 62.5928 100.569 62.4774C100.504 62.3176 100.505 62.1389 100.57 61.9793C100.635 61.8197 100.76 61.6918 100.918 61.6229C101.854 61.2022 102.879 61.0143 103.903 61.0751C104.928 61.1358 105.923 61.4435 106.803 61.9719C106.943 62.0714 107.038 62.221 107.07 62.3893C107.101 62.5576 107.066 62.7316 106.972 62.8746C106.869 63.0093 106.72 63.1011 106.553 63.1322C106.386 63.1633 106.214 63.1316 106.069 63.0431C105.362 62.6355 104.566 62.406 103.751 62.3745C102.935 62.3431 102.124 62.5106 101.387 62.8626C101.203 62.8952 101.014 62.8564 100.858 62.7543Z" fill="#263238"/>
<path d="M105.118 72.3231L103.229 78.3412C101.743 77.8794 100.431 76.982 99.4614 75.7654C101.539 74.9678 103.455 73.8016 105.118 72.3231Z" fill="#D58745"/>
<path d="M125.327 80.1225C125.327 80.1225 130.033 74.2248 132.898 77.2699C135.763 80.3151 132.043 91.268 126.88 89.8718C121.716 88.4756 122.029 83.0714 125.327 80.1225Z" fill="#EBB376"/>
<path d="M101.796 81.0613C102.317 82.7157 102.719 84.405 103 86.1165C103.301 86.1165 103.614 86.1165 103.915 86.1165C108.067 86.1165 109.933 84.7083 110.848 83.1797C111.251 82.4398 111.474 81.6149 111.498 80.7725C111.523 80.2872 111.478 79.8007 111.365 79.3281C109.175 80.6521 105.347 80.9771 103.229 81.0613C102.314 81.0734 101.796 81.0613 101.796 81.0613Z" fill="#263238"/>
<path d="M103.205 81.0252L103.59 82.5057C107.502 82.5057 110.258 81.9279 111.473 80.7364C111.499 80.251 111.454 79.7646 111.341 79.292C109.15 80.616 105.275 80.941 103.205 81.0252Z" fill="white"/>
<path d="M103.891 86.1165C108.043 86.1165 109.909 84.7083 110.824 83.1797C109.247 83.2253 107.691 83.5471 106.226 84.1306C105.261 84.5349 104.445 85.2288 103.891 86.1165Z" fill="#DE5753"/>
<path d="M109.018 47.035C116.505 46.7943 127.205 48.3951 134.234 61.8997C138.434 69.8753 139.873 79.0177 138.326 87.8979C139.654 87.6622 140.875 87.0146 141.814 86.0469C142.754 85.0791 143.365 83.8402 143.562 82.5057C143.562 82.5057 153.059 68.0622 152.252 60.4313C151.446 52.8003 136.376 41.6909 121.09 44.2426C121.09 44.2426 115.277 41.5585 111.209 43.9297C107.14 46.3008 109.018 47.035 109.018 47.035Z" fill="#407BFF"/>
<path d="M128.192 53.6669C125.857 48.9367 113.219 48.6358 110.029 44.6759C106.84 40.716 108.765 37.4542 108.765 37.4542C108.765 37.4542 103.072 41.7992 104.396 48.0581L100.629 44.375C100.629 44.375 97.1384 60.9488 122.294 60.5516L128.192 53.6669Z" fill="#263238"/>
<path d="M123.365 300.638L111.943 302.13C111.943 302.13 85.7642 264.818 86.378 201.159C86.378 201.159 67.0238 202.699 49.8 225.231C41.7598 235.702 34.153 250.724 29.2542 272.244L17.0736 264.71C17.0736 264.71 20.8048 203.433 69.1903 157.828L127.59 172.067C127.59 172.067 106.178 250.603 123.365 300.638Z" fill="#407BFF"/>
<path d="M175.446 80.8928C175.446 80.8928 176.084 72.1064 176.409 71.5888C176.734 71.0713 194.824 68.2909 195.294 69.326C195.763 70.3611 194.222 82.4335 193.332 83.1797C192.441 83.9259 176.782 88.6802 175.446 82.4936" fill="#EBB376"/>
<path d="M27.521 13.9475L27.6895 13.9234L27.6654 13.8994L27.6895 13.8873V13.8512L27.521 13.9475Z" fill="#263238"/>
<path opacity="0.2" d="M32.8169 16.2945L34.5742 17.7028L36.7287 17.0528L35.9343 19.1592L37.2101 21.0007L34.9714 20.8924L33.5993 22.6858L33.0095 20.5193L30.8911 19.773L32.7688 18.5453L32.8169 16.2945Z" fill="white"/>
<path opacity="0.2" d="M57.0458 42.1483V44.3991L58.9114 45.6749L56.7689 46.373L56.131 48.5395L54.807 46.722L52.5563 46.7822L53.8682 44.9527L53.122 42.8344L55.2644 43.5325L57.0458 42.1483Z" fill="white"/>
<path opacity="0.2" d="M46.7909 36.7922V39.043L48.6445 40.3188L46.5141 41.0169L45.8762 43.1834L44.5522 41.3659L42.3015 41.4261L43.6134 39.5966L42.8551 37.4783L44.9976 38.1643L46.7909 36.7922Z" fill="white"/>
<path opacity="0.2" d="M57.9244 35.2636V36.5756L59.0077 37.3218L57.7559 37.731L57.3828 39.0069L56.6125 37.9356L55.2885 37.9718L56.0588 36.9005L55.6255 35.6608L56.8773 36.07L57.9244 35.2636Z" fill="white"/>
<path opacity="0.2" d="M39.6535 45.6629V46.9868L40.7488 47.7331L39.497 48.1423L39.1239 49.4061L38.3416 48.3469L37.0296 48.383L37.7999 47.3118L37.3546 46.0721L38.6064 46.4693L39.6535 45.6629Z" fill="white"/>
<path opacity="0.2" d="M37.2342 32.9165L37.2462 34.2405L38.3295 34.9868L37.0777 35.396L36.7046 36.6598L35.9222 35.5886L34.6103 35.6367L35.3806 34.5655L34.9353 33.3258L36.187 33.723L37.2342 32.9165Z" fill="white"/>
<path opacity="0.2" d="M63.8824 12.0458V13.3577L64.9777 14.104L63.7259 14.5132L63.3528 15.777L62.5704 14.7178L61.2585 14.7539L62.0288 13.6827L61.5835 12.443L62.8352 12.8522L63.8824 12.0458Z" fill="white"/>
<path opacity="0.2" d="M40.7367 22.6617L42.2292 25.2374L45.2022 25.4541L43.2282 27.6808L43.9263 30.5695L41.2061 29.3779L38.6665 30.9426L38.9674 27.9817L36.6926 26.0559L39.6053 25.418L40.7367 22.6617Z" fill="white"/>
<path opacity="0.2" d="M72.4642 12.1421L73.4872 13.3818L74.5344 12.5393L74.3177 14.7178L75.1482 16.451L73.9928 16.5473L73.4632 18.4731L72.9576 16.3547L71.8022 15.8131L72.6447 14.3928L72.4642 12.1421Z" fill="white"/>
<path opacity="0.2" d="M84.5124 11.5884L84.7291 13.8392L85.8003 14.9344L84.7772 15.8372L84.6448 18.0639L83.8023 16.3668L82.6588 16.6316L83.1523 14.6937L82.5746 12.6355L83.73 13.129L84.5124 11.5884Z" fill="white"/>
<path opacity="0.2" d="M87.2687 35.7691L87.4853 38.0079L88.5566 39.1152L87.5214 40.0179L87.4011 42.2326L86.5586 40.5354L85.4151 40.8123L85.9206 38.8624L85.3309 36.8163L86.4863 37.2977L87.2687 35.7691Z" fill="white"/>
<path opacity="0.2" d="M81.5274 31.3518L81.7441 33.6026L82.8032 34.7099L81.7802 35.6126L81.6598 37.8273L80.8052 36.1302L79.6618 36.407L80.1673 34.4572L79.5775 32.411L80.745 32.8925L81.5274 31.3518Z" fill="white"/>
<path opacity="0.2" d="M87.0761 28.7881L87.1965 30.1001L87.8223 30.75L87.2205 31.2796L87.1483 32.5795L86.6548 31.5805L85.9808 31.749L86.2817 30.6056L85.9327 29.402L86.6187 29.6908L87.0761 28.7881Z" fill="white"/>
<path opacity="0.2" d="M78.711 40.8965L78.8313 42.2205L79.4572 42.8585L78.8554 43.388L78.7832 44.6879L78.2897 43.701L77.6157 43.8575L77.9166 42.714L77.5675 41.5104L78.2536 41.7993L78.711 40.8965Z" fill="white"/>
<path opacity="0.2" d="M76.2796 28.3669L76.4 29.6908L77.0259 30.3288L76.4241 30.8584L76.3519 32.1583L75.8584 31.1713L75.1843 31.3278L75.4853 30.1843L75.1362 28.9807L75.8223 29.2696L76.2796 28.3669Z" fill="white"/>
<path opacity="0.2" d="M87.9547 5.00458L88.0751 6.31654L88.701 6.96648L88.0992 7.49608L88.0269 8.79599L87.5335 7.79698L86.8594 7.95346L87.1603 6.82206L86.8113 5.61844L87.4974 5.90729L87.9547 5.00458Z" fill="white"/>
<path opacity="0.2" d="M77.1101 17.775L78.1091 20.2063L79.6498 20.1582L78.8433 22.5654L79.4813 25.3939L77.9767 24.4551L76.8213 26.2605L76.7009 23.2635L75.3528 21.5544L76.7852 20.6396L77.1101 17.775Z" fill="white"/>
<path opacity="0.2" d="M87.6057 19.9897L89.1223 20.8081L90.2296 18.9064L90.4222 21.8914L91.7943 23.4922L90.3981 24.5273L90.1454 27.428L89.0862 25.0689L87.5576 25.2615L88.3038 22.77L87.6057 19.9897Z" fill="white"/>
<path opacity="0.2" d="M92.0591 31.737L93.0701 34.1683L94.6108 34.1201L93.8043 36.5274L94.4302 39.3559L92.9257 38.405L91.7823 40.2105L91.6499 37.2135L90.3138 35.5043L91.7341 34.6016L92.0591 31.737Z" fill="white"/>
<path opacity="0.2" d="M27.509 13.7188L47.9825 3.76485L90.8314 0.743774L68.107 10.5533L27.509 13.7188Z" fill="white"/>
<path d="M106.695 300.854C106.523 300.683 106.404 300.467 106.35 300.23C106.297 299.994 106.312 299.747 106.394 299.518C106.42 299.368 106.484 299.226 106.581 299.108C106.679 298.99 106.805 298.899 106.948 298.844C108.151 298.339 111.124 300.301 111.461 300.529C111.498 300.559 111.525 300.599 111.54 300.644C111.554 300.688 111.557 300.736 111.546 300.782C111.539 300.828 111.517 300.869 111.485 300.902C111.452 300.934 111.41 300.956 111.365 300.963C110.472 301.193 109.555 301.323 108.633 301.348C107.948 301.429 107.258 301.254 106.695 300.854ZM107.116 299.326C107.047 299.355 106.987 299.401 106.941 299.46C106.894 299.519 106.864 299.589 106.852 299.663C106.805 299.809 106.796 299.964 106.828 300.114C106.86 300.264 106.93 300.403 107.032 300.517C107.514 300.987 108.862 301.035 110.703 300.662C109.5 299.904 107.79 299.061 107.092 299.326H107.116Z" fill="#407BFF"/>
<path d="M108.609 297.581C108.649 297.341 108.757 297.118 108.919 296.937C109.08 296.756 109.29 296.624 109.524 296.557C109.658 296.484 109.809 296.445 109.963 296.445C110.116 296.445 110.268 296.484 110.402 296.557C111.534 297.292 111.606 300.818 111.606 301.215C111.602 301.261 111.587 301.305 111.562 301.343C111.537 301.381 111.502 301.411 111.461 301.432C111.425 301.46 111.381 301.476 111.335 301.476C111.289 301.476 111.245 301.46 111.209 301.432C110.499 300.834 109.857 300.16 109.295 299.422C108.85 298.912 108.606 298.257 108.609 297.581ZM110.101 297.039C110.035 297.001 109.961 296.981 109.885 296.981C109.809 296.981 109.734 297.001 109.668 297.039C109.524 297.087 109.394 297.171 109.291 297.282C109.188 297.394 109.115 297.529 109.078 297.677C108.982 298.351 109.728 299.47 111.1 300.746C111.016 299.338 110.715 297.448 110.101 297.063V297.039Z" fill="#407BFF"/>
<path d="M112.268 299.579L123.799 299.494C123.893 299.489 123.988 299.503 124.078 299.535C124.167 299.567 124.25 299.616 124.32 299.68C124.39 299.744 124.448 299.821 124.488 299.907C124.529 299.992 124.552 300.085 124.557 300.18L125.183 309.316C125.186 309.794 125.001 310.254 124.667 310.596C124.334 310.939 123.879 311.136 123.401 311.145C119.381 311.145 117.455 310.88 112.388 310.88C109.271 310.88 103.12 311.218 98.8596 310.568C94.5988 309.918 95.357 305.753 97.2226 305.621C101.628 305.356 107.622 302.455 110.462 300.168C110.98 299.772 111.617 299.564 112.268 299.579Z" fill="#263238"/>
<path d="M12.9933 263.951C12.9113 263.723 12.896 263.476 12.9493 263.24C13.0026 263.003 13.1222 262.786 13.2942 262.615C13.383 262.492 13.5008 262.392 13.6372 262.325C13.7737 262.258 13.9246 262.225 14.0766 262.23C15.4246 262.327 17.23 265.348 17.4346 265.697C17.4558 265.738 17.4668 265.783 17.4668 265.829C17.4668 265.875 17.4558 265.92 17.4346 265.961C17.4074 265.998 17.37 266.025 17.3271 266.04C17.2843 266.055 17.2379 266.057 17.1939 266.046C16.288 265.87 15.4041 265.596 14.558 265.227C13.8933 265.016 13.3338 264.56 12.9933 263.951ZM14.0284 262.748C13.9526 262.741 13.8765 262.755 13.8085 262.789C13.7404 262.823 13.6832 262.876 13.6433 262.94C13.5412 263.052 13.4689 263.188 13.4332 263.335C13.3974 263.483 13.3993 263.637 13.4386 263.783C13.6794 264.421 14.883 265.047 16.7004 265.492C15.9301 264.288 14.7506 262.796 14.0284 262.748Z" fill="#407BFF"/>
<path d="M16.1347 261.761C16.2624 261.565 16.4441 261.411 16.6578 261.317C16.8715 261.223 17.108 261.193 17.3384 261.231C17.492 261.23 17.6434 261.268 17.7782 261.342C17.913 261.416 18.0267 261.523 18.1087 261.652C18.8188 262.856 17.3985 266.022 17.23 266.395C17.2071 266.432 17.1755 266.464 17.1378 266.487C17.1001 266.51 17.0574 266.524 17.0134 266.527C16.9672 266.526 16.9223 266.512 16.8838 266.487C16.8454 266.461 16.8152 266.425 16.7967 266.383C16.4097 265.541 16.1229 264.656 15.9422 263.747C15.7513 263.084 15.8201 262.374 16.1347 261.761ZM17.7115 261.905C17.6679 261.843 17.6103 261.792 17.5434 261.757C17.4765 261.721 17.4021 261.702 17.3263 261.701C17.1754 261.683 17.0224 261.703 16.8814 261.76C16.7404 261.816 16.6161 261.908 16.5199 262.026C16.1468 262.591 16.3394 263.927 17.0254 265.636C17.555 264.325 18.0846 262.483 17.7115 261.869V261.905Z" fill="#407BFF"/>
<path d="M18.5661 265.179L29.0255 270.054C29.2033 270.128 29.3446 270.27 29.419 270.448C29.4933 270.626 29.4946 270.826 29.4227 271.005L26.0767 279.514C25.875 279.951 25.5084 280.29 25.0571 280.457C24.6059 280.624 24.1068 280.605 23.6694 280.405C20.0586 278.648 18.4096 277.624 13.8359 275.446C11.0073 274.122 5.31422 271.775 1.79965 269.356C-1.71492 266.936 0.704357 263.482 2.43757 264.18C6.52988 265.853 13.1859 265.793 16.7727 264.95C17.3795 264.831 18.0086 264.911 18.5661 265.179Z" fill="#263238"/>
<path opacity="0.3" d="M115.891 132.287H114.049L115.385 131.337C115.492 131.26 115.583 131.163 115.652 131.051C115.721 130.94 115.768 130.816 115.789 130.686C115.811 130.556 115.806 130.424 115.776 130.296C115.746 130.168 115.691 130.047 115.614 129.94C115.538 129.832 115.442 129.74 115.33 129.67C115.219 129.6 115.094 129.553 114.964 129.531C114.834 129.51 114.701 129.515 114.573 129.546C114.444 129.577 114.324 129.633 114.218 129.712L110.607 132.287H104.721L108.874 128.135L113.315 127.485C113.578 127.443 113.813 127.3 113.971 127.086C114.129 126.872 114.196 126.605 114.158 126.341C114.113 126.083 113.971 125.851 113.76 125.694C113.55 125.537 113.287 125.467 113.026 125.499L111.245 125.764L112.617 124.404C112.801 124.213 112.904 123.958 112.904 123.694C112.904 123.429 112.801 123.174 112.617 122.983C112.524 122.89 112.413 122.815 112.292 122.764C112.17 122.713 112.039 122.687 111.907 122.687C111.775 122.687 111.644 122.713 111.522 122.764C111.4 122.815 111.29 122.89 111.197 122.983L109.897 124.283L110.162 122.658C110.205 122.397 110.142 122.129 109.987 121.913C109.833 121.697 109.599 121.552 109.337 121.509C109.075 121.466 108.807 121.529 108.592 121.683C108.376 121.838 108.231 122.072 108.188 122.333L107.465 126.715L103.277 130.903V125.03L105.949 121.419C106.028 121.314 106.085 121.194 106.118 121.067C106.151 120.939 106.158 120.807 106.14 120.676C106.122 120.546 106.078 120.421 106.011 120.308C105.944 120.194 105.855 120.096 105.75 120.016C105.645 119.937 105.526 119.88 105.398 119.847C105.271 119.814 105.138 119.807 105.008 119.825C104.878 119.844 104.753 119.888 104.639 119.955C104.526 120.021 104.427 120.11 104.348 120.215L103.277 121.659V119.734C103.277 119.468 103.172 119.212 102.985 119.023C102.798 118.834 102.544 118.726 102.278 118.723C102.011 118.726 101.755 118.833 101.566 119.022C101.377 119.211 101.27 119.466 101.267 119.734V121.563L100.316 120.239C100.237 120.132 100.138 120.042 100.024 119.974C99.91 119.906 99.7838 119.861 99.6524 119.841C99.5211 119.821 99.3872 119.828 99.2584 119.86C99.1296 119.892 99.0084 119.949 98.9017 120.029C98.795 120.108 98.7049 120.207 98.6366 120.321C98.5683 120.435 98.523 120.561 98.5034 120.692C98.4839 120.823 98.4904 120.957 98.5226 121.086C98.5548 121.215 98.612 121.336 98.691 121.443L101.267 125.054V130.843L98.017 127.593L96.3681 122.141C96.2926 121.895 96.1254 121.688 95.9013 121.563C95.6771 121.437 95.4132 121.403 95.1644 121.467C94.9206 121.545 94.7153 121.712 94.5902 121.936C94.4651 122.159 94.4295 122.422 94.4904 122.67L95.0321 124.476L93.4433 122.887C93.3514 122.794 93.2418 122.719 93.1209 122.669C93 122.618 92.8703 122.592 92.7392 122.592C92.6081 122.592 92.4783 122.618 92.3574 122.669C92.2365 122.719 92.1269 122.794 92.035 122.887C91.9411 122.98 91.8666 123.091 91.8157 123.212C91.7649 123.334 91.7387 123.465 91.7387 123.597C91.7387 123.729 91.7649 123.86 91.8157 123.982C91.8666 124.104 91.9411 124.214 92.035 124.307L93.7442 126.017L91.7462 125.415C91.4974 125.351 91.2335 125.385 91.0093 125.511C90.7852 125.636 90.618 125.843 90.5425 126.089C90.4717 126.336 90.5015 126.601 90.6256 126.827C90.7496 127.052 90.9577 127.22 91.2045 127.292L96.7653 128.965L99.9669 132.155H95.2246L90.2898 129.507C90.1737 129.433 90.0436 129.384 89.9077 129.363C89.7719 129.342 89.6331 129.349 89.5001 129.384C89.3671 129.419 89.2427 129.481 89.1348 129.566C89.0269 129.652 88.9377 129.758 88.8729 129.88C88.8081 130.001 88.7691 130.134 88.7582 130.271C88.7473 130.408 88.7649 130.546 88.8097 130.676C88.8546 130.806 88.9259 130.926 89.019 131.027C89.1121 131.128 89.2251 131.209 89.351 131.264L90.9999 132.155H88.7612C88.5136 132.182 88.2847 132.3 88.1185 132.485C87.9522 132.671 87.8603 132.911 87.8603 133.16C87.8603 133.409 87.9522 133.649 88.1185 133.835C88.2847 134.02 88.5136 134.138 88.7612 134.165H91.1684L89.3269 135.152C89.1309 135.258 88.976 135.427 88.8868 135.631C88.7976 135.835 88.7792 136.063 88.8345 136.279C88.8899 136.495 89.0158 136.686 89.1922 136.822C89.3687 136.958 89.5855 137.031 89.8083 137.03C89.9726 137.031 90.1345 136.99 90.2777 136.909L95.4052 134.165H99.9067L96.5606 137.511L91.1925 139.124C90.9474 139.199 90.7413 139.367 90.6177 139.592C90.4942 139.816 90.4629 140.08 90.5305 140.328C90.6031 140.574 90.7704 140.783 90.9959 140.907C91.2214 141.031 91.4867 141.06 91.7341 140.99L93.5395 140.448L91.9508 142.037C91.7648 142.224 91.6605 142.477 91.6605 142.741C91.6605 143.005 91.7648 143.258 91.9508 143.445C92.0428 143.54 92.1532 143.616 92.2752 143.668C92.3972 143.72 92.5284 143.746 92.6609 143.746C92.7935 143.746 92.9247 143.72 93.0467 143.668C93.1687 143.616 93.279 143.54 93.3711 143.445L95.0802 141.736L94.4784 143.734C94.4174 143.983 94.4531 144.245 94.5782 144.468C94.7033 144.692 94.9085 144.859 95.1524 144.937H95.4413C95.6558 144.94 95.8653 144.872 96.0372 144.744C96.2091 144.615 96.3339 144.434 96.3921 144.227L98.0652 138.667L101.255 135.477V140.207L98.6068 145.142C98.4825 145.377 98.4558 145.651 98.5324 145.906C98.6089 146.161 98.7827 146.375 99.016 146.502C99.162 146.576 99.3221 146.617 99.4854 146.622C99.6679 146.623 99.847 146.574 100.004 146.48C100.161 146.387 100.289 146.253 100.376 146.093L101.255 144.432V146.671C101.258 146.938 101.365 147.193 101.554 147.382C101.743 147.571 101.999 147.679 102.266 147.682C102.532 147.679 102.786 147.571 102.973 147.381C103.16 147.192 103.265 146.937 103.265 146.671V144.263L104.252 146.105C104.378 146.34 104.592 146.514 104.847 146.591C105.102 146.668 105.377 146.64 105.612 146.514C105.846 146.388 106.021 146.174 106.098 145.919C106.175 145.664 106.147 145.389 106.021 145.154L103.265 140.039V135.381L107.514 139.642L108.176 144.071C108.208 144.31 108.325 144.53 108.507 144.689C108.688 144.848 108.921 144.937 109.163 144.937H109.307C109.438 144.918 109.563 144.874 109.677 144.806C109.79 144.738 109.888 144.648 109.967 144.542C110.045 144.435 110.102 144.314 110.133 144.186C110.164 144.058 110.17 143.924 110.15 143.794L109.897 142.025L111.257 143.385C111.348 143.48 111.457 143.555 111.578 143.607C111.699 143.659 111.829 143.685 111.961 143.685C112.093 143.685 112.223 143.659 112.344 143.607C112.465 143.555 112.574 143.48 112.665 143.385C112.759 143.293 112.833 143.183 112.884 143.062C112.934 142.942 112.96 142.812 112.96 142.681C112.96 142.55 112.934 142.42 112.884 142.299C112.833 142.178 112.759 142.068 112.665 141.977L111.365 140.677L112.99 140.941C113.124 140.967 113.261 140.967 113.395 140.939C113.528 140.911 113.654 140.857 113.766 140.779C113.879 140.702 113.974 140.603 114.047 140.488C114.121 140.373 114.171 140.245 114.194 140.111C114.214 139.981 114.209 139.849 114.178 139.721C114.148 139.594 114.092 139.473 114.015 139.367C113.938 139.261 113.841 139.171 113.729 139.102C113.617 139.034 113.493 138.988 113.363 138.967L108.994 138.245L104.721 134.297H110.607L114.218 136.969C114.393 137.096 114.604 137.163 114.82 137.162C114.976 137.164 115.13 137.13 115.271 137.061C115.411 136.992 115.533 136.89 115.626 136.765C115.784 136.551 115.852 136.282 115.813 136.019C115.775 135.755 115.634 135.517 115.421 135.357L113.989 134.297H115.915C116.162 134.27 116.391 134.153 116.558 133.967C116.724 133.782 116.816 133.542 116.816 133.292C116.816 133.043 116.724 132.803 116.558 132.618C116.391 132.432 116.162 132.315 115.915 132.287H115.891Z" fill="white"/>
<path opacity="0.2" d="M86.4021 201.159C86.4021 201.159 67.0479 202.699 49.8241 225.231C52.8452 204.505 81.6598 189.122 81.6598 189.122C82.4142 193.413 84.0272 197.507 86.4021 201.159Z" fill="black"/>
<path opacity="0.2" d="M82.2857 107.697L80.9617 119.589C77.0741 115.1 74.1613 108.865 72.0549 102.883C73.3198 104.367 74.8866 105.564 76.6509 106.394C78.4151 107.224 80.3361 107.669 82.2857 107.697Z" fill="black"/>
<path opacity="0.2" d="M133.223 131.481C132.838 137.114 132.26 143.421 131.405 150.017C124.665 145.202 125.833 121.96 125.833 121.96C127.121 127.064 131.995 130.65 133.223 131.481Z" fill="black"/>
<path d="M54.0327 47.5714C54.0327 47.5714 58.5813 40.027 59.1055 39.7128C59.6297 39.3985 77.0172 45.114 76.9668 46.2495C76.9164 47.385 70.0746 57.4499 68.9425 57.7118C67.8104 57.9736 51.6964 55.1193 53.3076 48.9986" fill="#EBB376"/>
</svg>
