<svg width="97" height="156" viewBox="0 0 97 156" fill="none" xmlns="http://www.w3.org/2000/svg">
<path d="M65.52 39.5114C65.52 39.5114 83.77 85.8914 96.43 99.0814C96.43 99.0814 95.9 110.161 84.03 105.141C72.16 100.121 64.75 98.5214 57.38 106.451C50.01 114.381 39.73 114.081 31.16 106.451C22.59 98.8214 24.57 107.451 14.67 109.321C4.77001 111.191 0 100.791 0 100.791C0 100.791 13.51 90.1114 19.24 41.9414L65.52 39.5114Z" fill="#407BFF"/>
<path opacity="0.2" d="M65.52 39.5114C65.52 39.5114 83.77 85.8914 96.43 99.0814C96.43 99.0814 95.9 110.161 84.03 105.141C72.16 100.121 64.75 98.5214 57.38 106.451C50.01 114.381 39.73 114.081 31.16 106.451C22.59 98.8214 24.57 107.451 14.67 109.321C4.77001 111.191 0 100.791 0 100.791C0 100.791 13.51 90.1114 19.24 41.9414L65.52 39.5114Z" fill="black"/>
<path d="M25.16 41.2114C25.16 41.2114 9.10001 49.6214 5.54001 56.6714C1.98001 63.7214 19.19 76.6114 19.19 76.6114C19.19 76.6114 20.75 84.9714 22.55 85.4714C24.35 85.9714 29.28 80.3314 29.67 79.1414C30.06 77.9514 23.34 73.6414 23.34 73.6414C23.34 73.6414 14.44 63.1214 14.64 60.7414C14.84 58.3614 28.49 50.0614 28.49 50.0614L25.16 41.2114Z" fill="#EBB376"/>
<path d="M19.53 141.001V151.671H25.98L26.61 140.141L19.53 141.001Z" fill="#EBB376"/>
<path d="M19.89 149.141L26.44 148.731C26.5499 148.72 26.6599 148.753 26.746 148.822C26.8321 148.891 26.8874 148.992 26.9 149.101L27.54 154.261C27.554 154.401 27.5386 154.542 27.4946 154.675C27.4507 154.808 27.3792 154.93 27.285 155.034C27.1907 155.138 27.0756 155.221 26.9473 155.277C26.8189 155.333 26.6802 155.362 26.54 155.361C24.26 155.461 23.16 155.361 20.28 155.551C17.7261 155.821 15.156 155.904 12.59 155.801C10.15 155.561 10.45 153.161 11.5 153.041C14.2188 152.528 16.7581 151.319 18.87 149.531C19.1546 149.287 19.5151 149.149 19.89 149.141Z" fill="#263238"/>
<path d="M16.77 150.041C16.6676 149.951 16.5933 149.834 16.5561 149.702C16.5188 149.571 16.5202 149.432 16.56 149.301C16.5698 149.214 16.6015 149.131 16.6522 149.059C16.7029 148.987 16.771 148.93 16.85 148.891C17.55 148.571 19.27 149.591 19.47 149.711C19.4902 149.728 19.5061 149.75 19.5166 149.774C19.527 149.799 19.5316 149.825 19.53 149.851C19.5235 149.876 19.511 149.9 19.4935 149.919C19.4761 149.938 19.4543 149.953 19.43 149.961C18.9288 150.116 18.4126 150.217 17.89 150.261C17.5023 150.331 17.1025 150.253 16.77 150.041ZM16.96 149.161C16.9235 149.183 16.8921 149.211 16.8679 149.246C16.8437 149.28 16.8274 149.32 16.82 149.361C16.8008 149.446 16.8025 149.534 16.8252 149.618C16.8478 149.701 16.8907 149.778 16.95 149.841C17.24 150.091 18.01 150.081 19.04 149.841C18.34 149.451 17.34 149.021 16.96 149.191V149.161Z" fill="#407BFF"/>
<path d="M19.33 149.971C18.73 149.661 17.78 148.491 17.87 147.851C17.8892 147.737 17.9456 147.631 18.0306 147.552C18.1155 147.472 18.2242 147.423 18.34 147.411C18.4433 147.392 18.5496 147.396 18.6514 147.422C18.7532 147.448 18.8482 147.495 18.93 147.561C19.55 148.101 19.52 149.801 19.53 149.851C19.5227 149.899 19.4976 149.942 19.46 149.971H19.4C19.3889 149.976 19.377 149.978 19.365 149.978C19.353 149.978 19.3411 149.976 19.33 149.971ZM18.39 147.701C18.19 147.701 18.15 147.831 18.14 147.911C18.2917 148.597 18.6859 149.204 19.25 149.621C19.25 149.071 19.13 148.111 18.75 147.801C18.711 147.762 18.6639 147.732 18.6121 147.713C18.5603 147.694 18.505 147.687 18.45 147.691L18.39 147.701Z" fill="#407BFF"/>
<path d="M63.65 142.881L64.97 147.581L66.19 151.921L72.6 151.171L71.38 145.581L70.22 140.221L63.65 142.881Z" fill="#EBB376"/>
<path d="M65.89 149.141L72.44 148.731C72.5499 148.72 72.6599 148.753 72.746 148.822C72.8321 148.891 72.8874 148.992 72.9 149.101L73.54 154.261C73.554 154.401 73.5386 154.542 73.4946 154.675C73.4507 154.808 73.3792 154.93 73.285 155.034C73.1907 155.138 73.0756 155.221 72.9473 155.277C72.8189 155.333 72.6802 155.362 72.54 155.361C70.26 155.461 69.16 155.361 66.28 155.551C63.7261 155.821 61.156 155.904 58.59 155.801C56.15 155.561 56.45 153.161 57.5 153.041C60.2188 152.528 62.7581 151.319 64.87 149.531C65.1546 149.287 65.5151 149.149 65.89 149.141Z" fill="#263238"/>
<path d="M62.77 150.041C62.6676 149.951 62.5933 149.834 62.5561 149.702C62.5188 149.571 62.5202 149.432 62.56 149.301C62.5698 149.214 62.6015 149.131 62.6522 149.059C62.7029 148.987 62.771 148.93 62.85 148.891C63.55 148.571 65.27 149.591 65.47 149.711C65.4902 149.728 65.5061 149.75 65.5166 149.774C65.527 149.799 65.5316 149.825 65.53 149.851C65.5235 149.876 65.511 149.9 65.4935 149.919C65.4761 149.938 65.4543 149.953 65.43 149.961C64.9288 150.116 64.4126 150.217 63.89 150.261C63.5023 150.331 63.1025 150.253 62.77 150.041ZM62.96 149.161C62.9235 149.183 62.8921 149.211 62.8679 149.246C62.8437 149.28 62.8274 149.32 62.82 149.361C62.8008 149.446 62.8025 149.534 62.8252 149.618C62.8478 149.701 62.8907 149.778 62.95 149.841C63.24 150.091 64.01 150.081 65.04 149.841C64.34 149.451 63.34 149.021 62.96 149.191V149.161Z" fill="#407BFF"/>
<path d="M65.33 149.971C64.73 149.661 63.78 148.491 63.87 147.851C63.8892 147.737 63.9456 147.631 64.0306 147.552C64.1155 147.472 64.2242 147.423 64.34 147.411C64.4433 147.392 64.5496 147.396 64.6514 147.422C64.7532 147.448 64.8482 147.495 64.93 147.561C65.55 148.101 65.52 149.801 65.53 149.851C65.5227 149.899 65.4976 149.942 65.46 149.971H65.4C65.3889 149.976 65.377 149.978 65.365 149.978C65.353 149.978 65.3411 149.976 65.33 149.971ZM64.39 147.701C64.19 147.701 64.15 147.831 64.14 147.911C64.2917 148.597 64.6859 149.204 65.25 149.621C65.25 149.071 65.13 148.111 64.75 147.801C64.711 147.762 64.6639 147.732 64.6121 147.713C64.5603 147.694 64.505 147.687 64.45 147.691L64.39 147.701Z" fill="#407BFF"/>
<path d="M17.86 145.351C17.86 145.351 16.15 100.871 27 74.6714L60.89 74.7314C60.89 74.7314 62.79 92.4914 73.52 143.101L61.96 146.101C61.96 146.101 46.96 121.231 42.73 100.921C35.4816 114.894 30.3553 129.868 27.52 145.351H17.86Z" fill="#263238"/>
<path d="M61.91 40.2114C61.91 40.2114 77.97 48.6214 81.53 55.6714C85.09 62.7214 67.88 75.6114 67.88 75.6114C67.88 75.6114 66.31 83.9714 64.52 84.4714C62.73 84.9714 57.79 79.3314 57.4 78.1414C57.01 76.9514 63.73 72.6414 63.73 72.6414C63.73 72.6414 72.63 62.1214 72.43 59.7414C72.23 57.3614 58.58 49.0614 58.58 49.0614L61.91 40.2114Z" fill="#EBB376"/>
<path d="M30 36.6114C26 36.9114 13.58 45.8214 13.58 45.8214L20.36 57.8214L29.74 54.5114C31.1465 51.843 31.9198 48.8867 32 45.8714C31.9518 42.6829 31.272 39.5356 30 36.6114Z" fill="#407BFF"/>
<path opacity="0.6" d="M32 45.8714C31.9105 48.9119 31.1163 51.89 29.68 54.5714L27 55.5214L21.26 57.5214L20.26 57.8614L13.48 45.8614C13.48 45.8614 25.92 36.8714 30 36.6114C31.272 39.5356 31.9518 42.6829 32 45.8714Z" fill="white"/>
<path opacity="0.2" d="M27 48.6614V55.4714L21.26 57.4714C21.73 52.9814 27 48.6614 27 48.6614Z" fill="black"/>
<path d="M60.34 55.2014C59.9336 60.9002 60.0977 66.6253 60.83 72.2914C60.9145 73.1018 60.9413 73.9172 60.91 74.7314L27 74.6714C24.71 51.7614 25.49 47.4714 26.39 41.5314C26.6151 40.1106 27.2772 38.7953 28.2844 37.7684C29.2917 36.7414 30.5939 36.0539 32.01 35.8014C33.55 35.5114 35.36 35.2314 37.21 35.0714C42.0093 34.7914 46.8208 34.7914 51.62 35.0714C53.42 35.1614 55.25 35.3514 56.9 35.5614H57.1C58.6221 35.8138 59.9817 36.6603 60.8799 37.9148C61.7781 39.1693 62.1415 40.7291 61.89 42.2514C61.07 47.4014 60.59 51.6414 60.34 55.2014Z" fill="#407BFF"/>
<path opacity="0.6" d="M61.91 42.3014C61.5567 44.4547 61.2633 46.4547 61.03 48.3014C60.71 50.8514 60.48 53.1314 60.34 55.1914C60.24 56.6414 60.18 57.9814 60.14 59.1914C60.0619 63.5555 60.2924 67.9198 60.83 72.2514C60.9145 73.0618 60.9413 73.8772 60.91 74.6914L27 74.6714C24.71 51.7614 25.49 47.4714 26.39 41.5314C26.6151 40.1106 27.2772 38.7953 28.2844 37.7684C29.2917 36.7414 30.5939 36.0539 32.01 35.8014C33.55 35.5114 35.36 35.2314 37.21 35.0714C42.0093 34.7914 46.8208 34.7914 51.62 35.0714C53.42 35.1614 55.25 35.3514 56.9 35.5614H57.1C57.8605 35.6837 58.589 35.9558 59.2435 36.3618C59.898 36.7678 60.4654 37.2997 60.9129 37.9267C61.3603 38.5536 61.6788 39.2631 61.85 40.0141C62.0211 40.765 62.0415 41.5425 61.91 42.3014Z" fill="white"/>
<path opacity="0.2" d="M61 48.3114C60.68 50.8614 60.45 53.1414 60.31 55.2014C60.21 56.6514 60.15 57.9914 60.11 59.2014C54.11 53.5814 55.03 44.7914 55.03 44.7914L61 48.3114Z" fill="black"/>
<path d="M57.12 35.6114C61.12 35.9114 73.54 44.8214 73.54 44.8214L66.76 56.8214L57.38 53.5114C55.9437 50.83 55.1495 47.8519 55.06 44.8114C55.1351 41.6391 55.8351 38.5128 57.12 35.6114Z" fill="#407BFF"/>
<path opacity="0.6" d="M57.12 35.6114C61.12 35.9114 73.54 44.8214 73.54 44.8214L66.76 56.8214L57.38 53.5114C55.9437 50.83 55.1495 47.8519 55.06 44.8114C55.1351 41.6391 55.8351 38.5128 57.12 35.6114Z" fill="white"/>
<path d="M40.14 41.2114C48.6186 42.5962 57.3019 42.0146 65.52 39.5114C65.52 39.5114 63.9 32.9514 42.16 34.1414C20.42 35.3314 19.26 41.9414 19.26 41.9414C19.26 41.9414 28 48.2414 40.14 41.2114Z" fill="#407BFF"/>
<path d="M49.71 35.2114C45.92 38.4414 43.1 40.6314 38.14 40.1514C32.2 39.5614 34.52 36.8614 34.52 36.8614C35.7921 36.2467 36.8409 35.2504 37.52 34.0114C38.44 32.1514 38.01 30.0114 37.16 27.8014L38.85 26.3114L43.48 22.2414C43.7342 22.0223 44.0484 21.8849 44.3819 21.847C44.7153 21.8092 45.0523 21.8726 45.3492 22.0291C45.646 22.1856 45.8888 22.4279 46.0459 22.7244C46.203 23.0209 46.2672 23.3579 46.23 23.6914C46.24 28.1214 47 33.2314 49.71 35.2114Z" fill="#EBB376"/>
<path opacity="0.2" d="M46.21 25.4614C46.21 25.4614 44.62 35.3814 37.51 34.0114C38.43 32.1514 38 30.0114 37.15 27.8014L38.84 26.3114L46.21 25.4614Z" fill="black"/>
<path d="M31.16 4.79138C31.16 4.79138 23.7 12.5414 33.73 18.7914C45.05 25.8714 31.16 4.79138 31.16 4.79138Z" fill="#263238"/>
<path d="M51.55 13.5214C51.07 20.6014 51.19 24.7514 47.18 28.3714C41.18 33.8314 31.32 30.6114 29.42 23.5514C27.67 17.2014 28.77 6.70138 36.56 3.88138C44.35 1.06138 52 6.45138 51.55 13.5214Z" fill="#EBB376"/>
<path d="M30.69 9.14138C33.829 9.82701 37.0952 9.64728 40.14 8.62138C40.14 8.62138 44.08 8.79138 43.75 13.2514C43.42 17.7114 48.75 19.5014 49.63 25.2514C49.63 25.2514 55.56 23.8214 55.02 11.0614C54.63 1.76138 46.21 -0.878627 38.02 0.241373C31.15 1.18137 26.87 6.71138 30.69 9.14138Z" fill="#263238"/>
<path d="M37.17 17.6314C37.22 18.2514 36.93 18.7914 36.52 18.8114C36.11 18.8314 35.74 18.3614 35.69 17.7414C35.64 17.1214 35.94 16.5914 36.35 16.5614C36.76 16.5314 37.12 17.0114 37.17 17.6314Z" fill="#263238"/>
<path d="M31.9 17.6314C31.9 18.2514 31.65 18.7914 31.24 18.8114C30.83 18.8314 30.47 18.3614 30.42 17.7414C30.37 17.1214 30.66 16.5914 31.07 16.5614C31.48 16.5314 31.85 17.0114 31.9 17.6314Z" fill="#263238"/>
<path d="M35.6 13.9414C35.5265 13.9188 35.4584 13.8814 35.4 13.8314C35.346 13.7504 35.3243 13.6521 35.3391 13.5559C35.3539 13.4596 35.4042 13.3724 35.48 13.3114C35.938 12.951 36.4768 12.7072 37.0498 12.6009C37.6229 12.4947 38.2132 12.5291 38.77 12.7014C38.861 12.7352 38.935 12.8034 38.9762 12.8913C39.0173 12.9793 39.0223 13.0798 38.99 13.1714C38.9541 13.2608 38.8856 13.3333 38.7984 13.3741C38.7111 13.4149 38.6116 13.4211 38.52 13.3914C38.0738 13.2627 37.603 13.2447 37.1482 13.3388C36.6935 13.4328 36.2685 13.6362 35.91 13.9314C35.8621 13.9554 35.8096 13.9687 35.7561 13.9704C35.7026 13.9721 35.6493 13.9623 35.6 13.9414Z" fill="#263238"/>
<path d="M29 13.2914C28.9355 13.2476 28.8865 13.1846 28.86 13.1114C28.8481 13.0648 28.8457 13.0162 28.853 12.9686C28.8602 12.921 28.8769 12.8754 28.902 12.8344C28.9272 12.7933 28.9604 12.7578 28.9995 12.7298C29.0387 12.7018 29.083 12.6819 29.13 12.6714C29.6926 12.514 30.2849 12.4954 30.8562 12.6174C31.4275 12.7393 31.9607 12.998 32.41 13.3714C32.4784 13.4406 32.5167 13.534 32.5167 13.6314C32.5167 13.7287 32.4784 13.8221 32.41 13.8914C32.3412 13.9568 32.2499 13.9933 32.155 13.9933C32.0601 13.9933 31.9688 13.9568 31.9 13.8914C31.5353 13.6004 31.1057 13.402 30.6477 13.3132C30.1897 13.2244 29.717 13.2478 29.27 13.3814C29.2212 13.3861 29.1719 13.3806 29.1254 13.3651C29.0789 13.3496 29.0362 13.3245 29 13.2914Z" fill="#263238"/>
<path d="M33 16.5814C32.7369 18.3077 32.239 19.99 31.52 21.5814C31.9335 21.7577 32.3807 21.841 32.83 21.8254C33.2793 21.8099 33.7196 21.6958 34.12 21.4914L33 16.5814Z" fill="#D58745"/>
<path d="M45.73 18.3914C45.73 18.3914 47.03 14.3014 49.18 15.3414C51.33 16.3814 51.57 22.9514 48.56 23.2514C45.55 23.5514 44.58 20.6314 45.73 18.3914Z" fill="#EBB376"/>
<path d="M33.41 23.0714C33.9605 23.9562 34.4484 24.8784 34.87 25.8314C35.0493 25.7953 35.2263 25.7486 35.4 25.6914C37.81 25.0514 38.71 23.9514 38.98 22.9314C39.1057 22.4325 39.1057 21.9102 38.98 21.4114C38.9237 21.1254 38.826 20.8492 38.69 20.5914C37.3816 21.6521 35.8607 22.4194 34.23 22.8414C33.73 23.0014 33.41 23.0714 33.41 23.0714Z" fill="#263238"/>
<path d="M34.23 22.8714L34.68 23.6714C36.95 23.0614 38.46 22.3214 38.98 21.4414C38.9237 21.1554 38.826 20.8792 38.69 20.6214C37.3816 21.6821 35.8607 22.4494 34.23 22.8714Z" fill="white"/>
<path d="M35.4 25.6914C37.81 25.0514 38.71 23.9514 38.98 22.9314C38.0697 23.196 37.2133 23.6192 36.45 24.1814C35.9506 24.5624 35.5833 25.0905 35.4 25.6914Z" fill="#DE5753"/>
<path d="M33.41 8.75139C33.41 8.75139 29.91 7.96137 31.16 10.6614C32.41 13.3614 34.23 11.5214 34.23 11.5214C32.77 12.1314 30.89 9.68138 34.07 9.52138L33.41 8.75139Z" fill="#263238"/>
<path opacity="0.6" d="M47.5246 62.185C51.6017 58.1079 51.6017 51.4977 47.5246 47.4206C43.4475 43.3435 36.8373 43.3435 32.7602 47.4206C28.6832 51.4976 28.6832 58.1079 32.7602 62.185C36.8373 66.262 43.4476 66.262 47.5246 62.185Z" fill="white"/>
<path d="M40.14 40.2114C42.3377 40.6201 44.3852 41.6116 46.0687 43.0822C47.7522 44.5528 49.0097 46.4486 49.71 48.5714C49.71 48.5714 42.86 49.7614 40.14 43.2314C40.14 43.2314 37.42 48.7414 32.77 48.6614C32.77 48.6614 34.75 41.3614 40.14 40.2114Z" fill="#407BFF"/>
</svg>
