<svg width="103" height="78" viewBox="0 0 103 78" fill="none" xmlns="http://www.w3.org/2000/svg">
<path d="M48.8839 41.9201L45.3087 41.6212C44.3991 41.5305 43.4804 41.6214 42.6062 41.8885C41.7319 42.1557 40.9194 42.5938 40.2158 43.1775C39.5122 43.7612 38.9316 44.4788 38.5076 45.2887C38.0835 46.0986 37.8246 46.9846 37.7457 47.8953C37.6669 48.8061 37.7697 49.7235 38.0482 50.5942C38.3268 51.4649 38.7754 52.2716 39.3682 52.9675C39.961 53.6634 40.6861 54.2347 41.5015 54.6481C42.3168 55.0616 43.2061 55.309 44.1179 55.3759L47.694 55.6836C48.6089 55.7845 49.5347 55.7014 50.4171 55.4393C51.2994 55.1772 52.1204 54.7412 52.8318 54.1571C53.5432 53.573 54.1306 52.8525 54.5595 52.0381C54.9883 51.2236 55.25 50.3317 55.3291 49.4146C55.4081 48.4975 55.303 47.5739 55.0199 46.6981C54.7368 45.8222 54.2814 45.0119 53.6805 44.3146C53.0796 43.6174 52.3453 43.0473 51.5208 42.638C50.6964 42.2287 49.7984 41.9884 48.8797 41.9312L48.8839 41.9201Z" fill="#263238"/>
<path opacity="0.6" d="M48.8839 41.9201L45.3087 41.6212C44.3991 41.5305 43.4804 41.6214 42.6062 41.8885C41.7319 42.1557 40.9194 42.5938 40.2158 43.1775C39.5122 43.7612 38.9316 44.4788 38.5076 45.2887C38.0835 46.0986 37.8246 46.9846 37.7457 47.8953C37.6669 48.8061 37.7697 49.7235 38.0482 50.5942C38.3268 51.4649 38.7754 52.2716 39.3682 52.9675C39.961 53.6634 40.6861 54.2347 41.5015 54.6481C42.3168 55.0616 43.2061 55.309 44.1179 55.3759L47.694 55.6836C48.6089 55.7845 49.5347 55.7014 50.4171 55.4393C51.2994 55.1772 52.1204 54.7412 52.8318 54.1571C53.5432 53.573 54.1306 52.8525 54.5595 52.0381C54.9883 51.2236 55.25 50.3317 55.3291 49.4146C55.4081 48.4975 55.303 47.5739 55.0199 46.6981C54.7368 45.8222 54.2814 45.0119 53.6805 44.3146C53.0796 43.6174 52.3453 43.0473 51.5208 42.638C50.6964 42.2287 49.7984 41.9884 48.8797 41.9312L48.8839 41.9201Z" fill="black"/>
<path opacity="0.2" d="M51.5936 49.0804C51.4762 50.4407 50.958 51.7357 50.1047 52.8016C49.2513 53.8675 48.101 54.6564 46.7992 55.0685C45.4975 55.4807 44.1028 55.4975 42.7915 55.117C41.4801 54.7365 40.3111 53.9756 39.4322 52.9307C38.5533 51.8857 38.004 50.6036 37.8537 49.2465C37.7035 47.8894 37.9591 46.5182 38.5881 45.3063C39.2172 44.0944 40.1915 43.0963 41.3878 42.4381C42.5841 41.78 43.9488 41.4914 45.3091 41.6088C47.1333 41.7662 48.8202 42.6418 49.9987 44.043C51.1773 45.4442 51.751 47.2562 51.5936 49.0804Z" fill="#263238"/>
<path opacity="0.6" d="M48.7078 48.8309C48.6371 49.6203 48.334 50.371 47.8367 50.9881C47.3395 51.6052 46.6706 52.0612 45.9143 52.2982C45.1581 52.5353 44.3486 52.5429 43.588 52.3201C42.8275 52.0973 42.1501 51.654 41.6413 51.0464C41.1326 50.4387 40.8154 49.6938 40.7299 48.906C40.6443 48.1181 40.7942 47.3225 41.1606 46.6198C41.527 45.917 42.0935 45.3387 42.7884 44.9578C43.4834 44.5769 44.2757 44.4105 45.0652 44.4797C45.5903 44.5258 46.1011 44.6749 46.5685 44.9186C47.0358 45.1623 47.4506 45.4957 47.7889 45.8999C48.1272 46.304 48.3826 46.7709 48.5402 47.2739C48.6979 47.7768 48.7549 48.3059 48.7078 48.8309Z" fill="black"/>
<path d="M83.3138 44.8943L79.7376 44.5867C78.8227 44.4858 77.8969 44.5688 77.0145 44.8309C76.1322 45.0931 75.3112 45.529 74.5998 46.1131C73.8884 46.6972 73.301 47.4177 72.8721 48.2322C72.4433 49.0466 72.1816 49.9386 72.1025 50.8557C72.0235 51.7727 72.1286 52.6963 72.4117 53.5722C72.6948 54.448 73.1502 55.2584 73.7511 55.9556C74.352 56.6529 75.0863 57.2229 75.9108 57.6322C76.7352 58.0416 77.6332 58.2819 78.5519 58.339L82.1266 58.6504C83.0319 58.7323 83.9446 58.6347 84.8121 58.3631C85.6796 58.0914 86.4849 57.6511 87.1818 57.0674C87.8787 56.4838 88.4535 55.7682 88.8731 54.9618C89.2928 54.1554 89.549 53.2741 89.6272 52.3684C89.7053 51.4628 89.6039 50.5506 89.3286 49.6842C89.0533 48.8178 88.6096 48.0144 88.023 47.3199C87.4364 46.6255 86.7184 46.0537 85.9103 45.6375C85.1021 45.2212 84.2198 44.9687 83.3138 44.8943Z" fill="#263238"/>
<path opacity="0.6" d="M83.3138 44.8943L79.7376 44.5867C78.8227 44.4858 77.8969 44.5688 77.0145 44.8309C76.1322 45.0931 75.3112 45.529 74.5998 46.1131C73.8884 46.6972 73.301 47.4177 72.8721 48.2322C72.4433 49.0466 72.1816 49.9386 72.1025 50.8557C72.0235 51.7727 72.1286 52.6963 72.4117 53.5722C72.6948 54.448 73.1502 55.2584 73.7511 55.9556C74.352 56.6529 75.0863 57.2229 75.9108 57.6322C76.7352 58.0416 77.6332 58.2819 78.5519 58.339L82.1266 58.6504C83.0319 58.7323 83.9446 58.6347 84.8121 58.3631C85.6796 58.0914 86.4849 57.6511 87.1818 57.0674C87.8787 56.4838 88.4535 55.7682 88.8731 54.9618C89.2928 54.1554 89.549 53.2741 89.6272 52.3684C89.7053 51.4628 89.6039 50.5506 89.3286 49.6842C89.0533 48.8178 88.6096 48.0144 88.023 47.3199C87.4364 46.6255 86.7184 46.0537 85.9103 45.6375C85.1021 45.2212 84.2198 44.9687 83.3138 44.8943Z" fill="black"/>
<path opacity="0.2" d="M84.5935 55.7049C86.9362 52.6967 86.3966 48.359 83.3885 46.0163C80.3803 43.6736 76.0425 44.2132 73.6999 47.2214C71.3572 50.2296 71.8967 54.5673 74.9049 56.9099C77.9131 59.2526 82.2508 58.7131 84.5935 55.7049Z" fill="#263238"/>
<path opacity="0.6" d="M77.7494 55.223C79.825 55.9932 82.1321 54.935 82.9023 52.8594C83.6726 50.7838 82.6144 48.4767 80.5388 47.7064C78.4632 46.9362 76.1561 47.9944 75.3858 50.07C74.6155 52.1456 75.6738 54.4527 77.7494 55.223Z" fill="black"/>
<path d="M91.6164 49.947L87.902 51.2267L19.2928 45.2955L20.2111 34.7044L84.1377 40.2334L91.6164 49.947Z" fill="#263238"/>
<path d="M66.1014 43.406L62.5253 43.0984C60.7538 43.0322 59.0247 43.6501 57.6963 44.824C56.3679 45.9978 55.542 47.6377 55.3896 49.4038C55.2373 51.17 55.7701 52.9271 56.8779 54.3111C57.9856 55.6951 59.5833 56.6 61.3399 56.8382L64.916 57.1459C66.7265 57.2789 68.5165 56.6934 69.8985 55.5162C71.2805 54.339 72.1432 52.6649 72.2997 50.8563C72.4563 49.0477 71.8942 47.2501 70.7351 45.8529C69.5761 44.4558 67.9133 43.5713 66.1069 43.3912L66.1014 43.406Z" fill="#263238"/>
<path opacity="0.1" d="M66.1014 43.406L62.5253 43.0984C60.7538 43.0322 59.0247 43.6501 57.6963 44.824C56.3679 45.9978 55.542 47.6377 55.3896 49.4038C55.2373 51.17 55.7701 52.9271 56.8779 54.3111C57.9856 55.6951 59.5833 56.6 61.3399 56.8382L64.916 57.1459C66.7265 57.2789 68.5165 56.6934 69.8985 55.5162C71.2805 54.339 72.1432 52.6649 72.2997 50.8563C72.4563 49.0477 71.8942 47.2501 70.7351 45.8529C69.5761 44.4558 67.9133 43.5713 66.1069 43.3912L66.1014 43.406Z" fill="white"/>
<path opacity="0.1" d="M68.0354 53.1954C69.8178 49.8249 68.5303 45.6476 65.1597 43.8653C61.7892 42.0829 57.612 43.3704 55.8296 46.7409C54.0473 50.1115 55.3347 54.2887 58.7053 56.0711C62.0758 57.8534 66.2531 56.5659 68.0354 53.1954Z" fill="white"/>
<path d="M61.3252 53.9429C63.5141 54.2747 65.5576 52.7692 65.8895 50.5803C66.2213 48.3914 64.7158 46.3479 62.5269 46.016C60.3379 45.6842 58.2944 47.1897 57.9626 49.3786C57.6308 51.5676 59.1363 53.6111 61.3252 53.9429Z" fill="#407BFF"/>
<path d="M31.6714 40.4318L28.1115 40.126C27.2062 40.044 26.2936 40.1417 25.4261 40.4133C24.5585 40.6849 23.7532 41.1252 23.0563 41.7089C22.3594 42.2926 21.7846 43.0082 21.365 43.8146C20.9454 44.6209 20.6891 45.5023 20.6109 46.4079C20.5328 47.3136 20.6343 48.2258 20.9095 49.0922C21.1848 49.9585 21.6285 50.762 22.2151 51.4564C22.8017 52.1509 23.5197 52.7226 24.3278 53.1389C25.136 53.5551 26.0184 53.8077 26.9244 53.882L30.4783 54.1814C31.3812 54.2595 32.2906 54.159 33.1547 53.8857C34.0187 53.6123 34.8205 53.1714 35.5142 52.5882C36.2078 52.005 36.7798 51.2908 37.1975 50.4865C37.6152 49.6823 37.8704 48.8036 37.9485 47.9007C38.0266 46.9978 37.9261 46.0883 37.6527 45.2243C37.3794 44.3602 36.9385 43.5585 36.3552 42.8648C35.772 42.1711 35.0579 41.5991 34.2536 41.1814C33.4493 40.7637 32.5706 40.5086 31.6677 40.4305L31.6714 40.4318Z" fill="#263238"/>
<path opacity="0.1" d="M31.6714 40.4318L28.1115 40.126C27.2062 40.044 26.2936 40.1417 25.4261 40.4133C24.5585 40.6849 23.7532 41.1252 23.0563 41.7089C22.3594 42.2926 21.7846 43.0082 21.365 43.8146C20.9454 44.6209 20.6891 45.5023 20.6109 46.4079C20.5328 47.3136 20.6343 48.2258 20.9095 49.0922C21.1848 49.9585 21.6285 50.762 22.2151 51.4564C22.8017 52.1509 23.5197 52.7226 24.3278 53.1389C25.136 53.5551 26.0184 53.8077 26.9244 53.882L30.4783 54.1814C31.3812 54.2595 32.2906 54.159 33.1547 53.8857C34.0187 53.6123 34.8205 53.1714 35.5142 52.5882C36.2078 52.005 36.7798 51.2908 37.1975 50.4865C37.6152 49.6823 37.8704 48.8036 37.9485 47.9007C38.0266 46.9978 37.9261 46.0883 37.6527 45.2243C37.3794 44.3602 36.9385 43.5585 36.3552 42.8648C35.772 42.1711 35.0579 41.5991 34.2536 41.1814C33.4493 40.7637 32.5706 40.5086 31.6677 40.4305L31.6714 40.4318Z" fill="white"/>
<path opacity="0.1" d="M26.3511 53.6042C30.1062 54.225 33.6537 51.6842 34.2745 47.9291C34.8953 44.1739 32.3545 40.6265 28.5994 40.0057C24.8442 39.3848 21.2968 41.9257 20.676 45.6808C20.0551 49.436 22.596 52.9834 26.3511 53.6042Z" fill="white"/>
<path d="M26.1288 50.7659C28.2088 51.5242 30.5097 50.4527 31.268 48.3727C32.0263 46.2927 30.9549 43.9917 28.8748 43.2334C26.7948 42.4751 24.4939 43.5466 23.7356 45.6266C22.9773 47.7067 24.0487 50.0076 26.1288 50.7659Z" fill="#407BFF"/>
<path d="M30.6162 21.0033L29.8432 14.0731L35.4053 14.5575L40.4328 20.5347L40.319 21.8405L30.6162 21.0033Z" fill="#407BFF"/>
<path opacity="0.3" d="M30.6162 21.0033L29.8432 14.0731L35.4053 14.5575L40.4328 20.5347L40.319 21.8405L30.6162 21.0033Z" fill="black"/>
<path d="M36.5186 19.337L14.0471 17.3947L13.9114 18.9646L36.3829 20.9069L36.5186 19.337Z" fill="#407BFF"/>
<path opacity="0.3" d="M36.5186 19.337L14.0471 17.3947L13.9114 18.9646L36.3829 20.9069L36.5186 19.337Z" fill="black"/>
<path d="M93.1117 45.7248L92.6572 50.9567L70.1056 49.0078C70.1821 48.1234 70.0836 47.2326 69.8159 46.3862C69.5481 45.5398 69.1162 44.7545 68.5449 44.075C67.9737 43.3956 67.2741 42.8353 66.4863 42.4262C65.6985 42.017 64.8378 41.7671 63.9534 41.6906C63.069 41.6141 62.1782 41.7125 61.3318 41.9803C60.4854 42.2481 59.7001 42.68 59.0206 43.2512C58.3412 43.8225 57.7809 44.522 57.3718 45.3099C56.9626 46.0977 56.7127 46.9584 56.6362 47.8428L35.6702 46.0484C35.7467 45.164 35.6482 44.2732 35.3804 43.4268C35.1127 42.5804 34.6808 41.7951 34.1095 41.1156C32.9558 39.7434 31.3041 38.8857 29.518 38.7312C28.6336 38.6547 27.7428 38.7532 26.8964 39.0209C26.05 39.2887 25.2647 39.7206 24.5852 40.2918C23.213 41.4456 22.3553 43.0972 22.2008 44.8834L17.823 44.5226L18.4642 37.1188L24.9908 19.021L50.6399 21.239C50.6399 21.239 52.7565 21.2114 57.0341 22.6935C62.5324 24.5191 71.6605 28.846 84.5381 38.7685C87.2225 40.8094 90.107 43.1395 93.1117 45.7248Z" fill="#407BFF"/>
<path opacity="0.2" d="M66.3834 38.6956C63.7534 38.4694 61.1412 39.2969 59.121 40.9961C57.1009 42.6953 55.8383 45.1272 55.6106 47.757L56.6436 47.8455C56.7981 46.0593 57.6558 44.4077 59.028 43.254C60.4003 42.1002 62.1747 41.5388 63.9608 41.6933C65.747 41.8478 67.3986 42.7055 68.5523 44.0778C69.7061 45.45 70.2675 47.2244 70.113 49.0105L75.4184 49.4713C75.6468 46.8447 74.8236 44.2349 73.1297 42.2147C71.4358 40.1944 69.0095 38.9288 66.3834 38.6956Z" fill="black"/>
<path opacity="0.2" d="M31.9572 35.7228C29.327 35.4966 26.7146 36.3238 24.694 38.0226C22.6733 39.7214 21.4097 42.1529 21.1807 44.7828L22.2137 44.8713C22.3682 43.0851 23.2259 41.4335 24.5981 40.2798C25.9704 39.126 27.7448 38.5646 29.5309 38.7191C31.3171 38.8736 32.9687 39.7313 34.1224 41.1035C35.2762 42.4758 35.8376 44.2501 35.6831 46.0363L40.9885 46.497C41.103 45.1966 40.9602 43.8863 40.5683 42.641C40.1764 41.3958 39.543 40.2399 38.7044 39.2394C37.8657 38.2389 36.8382 37.4134 35.6805 36.81C34.5229 36.2066 33.2577 35.8372 31.9572 35.7228Z" fill="black"/>
<path d="M19.01 24.1147L36.8249 25.6707C39.8137 25.9247 42.677 26.9873 45.1079 28.7445L61.8654 40.347L58.397 42.746L44.7125 33.8172C41.8034 31.9324 38.4756 30.7915 35.022 30.4949L20.3684 29.2064C20.3684 29.2064 17.076 27.6349 19.01 24.1147Z" fill="#407BFF"/>
<path opacity="0.2" d="M19.01 24.1147L36.8249 25.6707C39.8137 25.9247 42.677 26.9873 45.1079 28.7445L61.8654 40.347L58.397 42.746L44.7125 33.8172C41.8034 31.9324 38.4756 30.7915 35.022 30.4949L20.3684 29.2064C20.3684 29.2064 17.076 27.6349 19.01 24.1147Z" fill="black"/>
<path d="M96.6162 46.0437L74.5667 44.1379L74.1177 49.355L94.5461 51.1226L96.3733 48.8097L96.6162 46.0437Z" fill="#407BFF"/>
<path opacity="0.2" d="M96.6162 46.0437L74.5667 44.1379L74.1177 49.355L94.5461 51.1226L96.3733 48.8097L96.6162 46.0437Z" fill="black"/>
<path opacity="0.4" d="M86.3134 45.8281L83.4174 45.5778L83.3045 46.8842L86.2005 47.1345L86.3134 45.8281Z" fill="white"/>
<path opacity="0.4" d="M96.16 46.6791L93.264 46.4288L93.1511 47.7352L96.0471 47.9855L96.16 46.6791Z" fill="white"/>
<path d="M13.4038 19.515L12.6294 12.5885L18.1892 13.0678L23.2167 19.0451L23.1066 20.3522L13.4038 19.515Z" fill="#407BFF"/>
<path opacity="0.1" d="M96.6217 46.0289L96.3793 48.8162L94.5511 51.1203L76.4764 49.5606L79.0188 47.4204L79.2525 44.5204L75.2228 44.175C75.2228 44.175 69.3179 37.3835 55.8124 27.9609C42.3866 18.5848 24.9908 19.021 24.9908 19.021L24.5356 19.8842L23.1563 19.7641L23.1079 20.3486L13.4311 19.521L12.6358 12.5825L18.2155 13.065L22.4582 18.1149L30.3628 18.8029L29.8381 14.0754L35.4141 14.5565L40.2566 20.3514L50.6492 21.2593C50.6492 21.2593 52.7658 21.2317 57.0435 22.7138C62.5417 24.5394 71.6698 28.8663 84.5474 38.7888C87.217 40.8242 90.0904 43.1502 93.1007 45.7544L96.6217 46.0289Z" fill="black"/>
<path opacity="0.6" d="M84.5529 38.774L82.0745 38.562L78.6899 35.979L74.7998 35.6433L74.6046 37.9173L68.3397 37.3743C53.7625 23.9607 40.1468 21.2374 40.1468 21.2374L57.0489 22.699C62.5472 24.5246 71.6753 28.8515 84.5529 38.774Z" fill="white"/>
<path d="M66.1432 20.9303C66.1432 20.9303 66.5651 25.3332 63.4866 25.9095C63.4866 25.9095 57.5197 25.0517 58.9317 21.0765C60.3437 17.1014 66.1432 20.9303 66.1432 20.9303Z" fill="white"/>
<path d="M62.9008 27.2044C62.9008 27.2044 65.0579 30.2461 65.8804 30.7198C66.3473 30.9942 69.027 31.9465 69.027 31.9465L68.6079 33.5982C68.6079 33.5982 65.3006 32.691 64.2345 32.1016C63.1683 31.5122 60.5227 28.6178 60.5227 28.6178L62.9008 27.2044Z" fill="#EBB376"/>
<path d="M59.5391 23.9011C61.2883 24.7278 62.7012 26.1294 63.5419 27.872L61.4333 29.8193L58.1603 28.2635L59.5391 23.9011Z" fill="#263238"/>
<path opacity="0.2" d="M58.1673 28.2787L58.8831 28.6202L60.8203 29.5413L61.4403 29.8346L63.5489 27.8873C62.7082 26.1447 61.2953 24.7431 59.5461 23.9164L58.1673 28.2787Z" fill="black"/>
<path opacity="0.2" d="M58.8872 28.6091L60.8244 29.5302C60.7037 28.6031 60.4177 27.7051 59.9801 26.8788L58.8872 28.6091Z" fill="black"/>
<path d="M56.2258 23.8048C54.5551 24.3222 53.6751 25.2973 52.8191 26.2645C55.0122 27.4416 57.1436 28.7303 59.2049 30.1256C60.2565 28.5343 60.652 26.598 60.3087 24.7218C59.7668 24.2269 59.105 23.8821 58.389 23.7212C57.6729 23.5604 56.9273 23.5892 56.2258 23.8048Z" fill="#263238"/>
<path d="M59.2414 26.0655C59.2624 25.9109 59.2939 25.7579 59.3355 25.6075C59.4744 25.1045 59.7469 24.6485 60.124 24.2878C60.5011 23.9271 60.9688 23.6753 61.4775 23.5589C61.4775 23.5589 59.2222 20.3165 58.7576 22.2041C58.693 22.4828 58.5867 22.7501 58.4423 22.997C58.3419 23.1701 58.2096 23.3226 58.0523 23.4463C57.8944 23.5703 57.711 23.6577 57.5152 23.7024C57.3195 23.747 57.1163 23.7477 56.9202 23.7044C56.5615 26.2716 59.2414 26.0655 59.2414 26.0655Z" fill="#EBB376"/>
<path opacity="0.2" d="M58.0523 23.4463C58.2228 24.2976 58.6828 25.0637 59.354 25.6144C59.4929 25.1114 59.7654 24.6554 60.1425 24.2947C60.5196 23.934 60.9873 23.6822 61.496 23.5658C61.496 23.5658 59.2407 20.3234 58.7761 22.211C58.7115 22.4896 58.6052 22.757 58.4608 23.0039C58.3542 23.1762 58.2156 23.3264 58.0523 23.4463Z" fill="black"/>
<path d="M64.6843 20.5026C64.7905 20.8876 64.7826 21.2952 64.6616 21.6758C64.5405 22.0564 64.3115 22.3936 64.0024 22.6466C62.9282 23.4864 62.9104 20.2993 62.9104 20.2993L64.6843 20.5026Z" fill="#263238"/>
<path d="M58.9593 19.9578C58.4471 21.7013 58.0478 22.6864 58.6927 23.9114C59.6591 25.7571 62.3026 25.8535 63.3874 24.3266C64.3682 22.955 65.0323 20.3369 63.4125 18.9691C61.7927 17.6013 59.4623 18.2277 58.9593 19.9578Z" fill="#EBB376"/>
<path d="M62.0461 22.2197C61.9911 22.3678 62.0023 22.5194 62.1009 22.5602C62.1995 22.601 62.3259 22.5215 62.3933 22.3738C62.4608 22.2261 62.4358 22.0778 62.3385 22.0333C62.2413 21.9888 62.1135 22.072 62.0461 22.2197Z" fill="#263238"/>
<path d="M63.3138 22.6859C63.2588 22.834 63.27 22.9856 63.3686 23.0264C63.4672 23.0672 63.5936 22.9877 63.6596 22.8437C63.7257 22.6997 63.7035 22.544 63.6062 22.4995C63.509 22.455 63.3812 22.5382 63.3138 22.6859Z" fill="#263238"/>
<path d="M62.6495 21.184C62.6679 21.1753 62.6841 21.1626 62.697 21.1469C62.7068 21.1239 62.7075 21.0981 62.699 21.0746C62.6905 21.0512 62.6734 21.0318 62.6512 21.0204C62.5186 20.9552 62.3723 20.9228 62.2245 20.9259C62.0768 20.929 61.932 20.9674 61.8022 21.0381C61.7804 21.0488 61.7636 21.0674 61.7551 21.0901C61.7467 21.1129 61.7473 21.138 61.7568 21.1603C61.7687 21.1819 61.7879 21.1985 61.8111 21.207C61.8342 21.2156 61.8596 21.2156 61.8827 21.207C61.9882 21.153 62.1051 21.1252 62.2237 21.1259C62.3422 21.1266 62.4588 21.1558 62.5636 21.2111C62.579 21.2131 62.5947 21.2118 62.6096 21.2071C62.6244 21.2024 62.638 21.1945 62.6495 21.184Z" fill="#263238"/>
<path d="M64.3482 22.1008C64.3689 22.1047 64.3902 22.1024 64.4096 22.0942C64.4314 22.0835 64.4482 22.0648 64.4566 22.0421C64.4651 22.0194 64.4645 21.9943 64.455 21.972C64.3873 21.8386 64.2881 21.7237 64.166 21.6373C64.0439 21.5509 63.9026 21.4956 63.7543 21.4761C63.7422 21.4749 63.7299 21.4763 63.7183 21.48C63.7067 21.4837 63.6959 21.4897 63.6867 21.4977C63.6774 21.5057 63.6699 21.5154 63.6645 21.5264C63.6591 21.5373 63.6559 21.5493 63.6553 21.5615C63.654 21.586 63.6619 21.6101 63.6774 21.6291C63.6929 21.6481 63.715 21.6606 63.7393 21.6643C63.8578 21.6814 63.9702 21.7275 64.0666 21.7985C64.1629 21.8696 64.2403 21.9633 64.2917 22.0715C64.3067 22.0872 64.3266 22.0976 64.3482 22.1008Z" fill="#263238"/>
<path d="M62.7872 22.9244L63.0608 23.4472C63.0608 23.4472 62.873 23.5671 62.4478 23.4303L62.7872 22.9244Z" fill="#D58745"/>
<path d="M62.4696 23.8597C62.2586 24.0226 62.0601 24.2009 61.8756 24.3933L61.7583 24.3119C61.2384 23.942 61.1175 23.598 61.1439 23.334C61.1588 23.2012 61.2059 23.0741 61.2813 22.9637C61.321 22.9007 61.3692 22.8435 61.4245 22.7936C61.6475 23.163 61.9454 23.4816 62.299 23.729L62.4696 23.8597Z" fill="#263238"/>
<path d="M62.294 23.7313L62.1151 23.884C61.6258 23.5339 61.3238 23.2238 61.2762 22.966C61.3159 22.903 61.3641 22.8458 61.4194 22.7959C61.6425 23.1653 61.9404 23.4839 62.294 23.7313Z" fill="white"/>
<path d="M61.7583 24.3119C61.2384 23.942 61.1175 23.5981 61.1439 23.334C61.3392 23.4771 61.5075 23.6537 61.6412 23.8556C61.7258 23.9922 61.7666 24.1514 61.7583 24.3119Z" fill="#DE5753"/>
<path d="M64.6406 19.0878C65.135 19.1407 65.4766 20.2406 64.8845 20.7918C64.7053 20.953 64.483 21.0586 64.2448 21.0959C64.0067 21.1331 63.7628 21.1004 63.5429 21.0016L63.813 20.9207C63.3371 20.9124 62.8729 20.7722 62.472 20.5157C62.4244 20.4602 62.3647 20.4164 62.2974 20.3878C62.23 20.3592 62.157 20.3466 62.084 20.3509C62.011 20.3553 61.94 20.3764 61.8766 20.4127C61.8131 20.4491 61.7589 20.4996 61.7182 20.5604C61.7182 20.5604 61.4343 20.5308 61.5407 20.1533C61.203 20.3803 60.9447 20.7071 60.802 21.0882C60.5141 21.7733 60.0027 21.8911 59.6044 21.5115C59.3405 21.2577 58.8868 22.8208 58.4 22.9519C57.9133 23.083 57.8509 22.4111 57.8509 22.4111C57.6189 22.3674 57.4089 22.2457 57.2556 22.0662C57.1023 21.8867 57.0149 21.6602 57.0081 21.4243C57.0081 21.4243 57.4857 21.6015 57.6838 20.8746C57.6838 20.8746 57.2778 20.13 58.2775 19.2751C58.2775 19.2751 58.0652 18.7119 58.7584 17.9791C58.9193 17.7753 59.1296 17.6159 59.3694 17.5162C59.6091 17.4164 59.8704 17.3796 60.1284 17.4091C60.1284 17.4091 60.4039 17.0185 61.5003 17.1178C62.5966 17.2171 62.8734 17.72 62.8734 17.72C63.2336 17.7341 63.5799 17.8626 63.862 18.0869C64.2048 18.3465 64.4733 18.6917 64.6406 19.0878Z" fill="#263238"/>
<path d="M59.9224 21.6422C59.9224 21.6422 59.9755 20.5455 59.3715 20.5952C58.7675 20.6449 58.1225 22.2128 58.8198 22.5474C59.5171 22.882 60.0083 22.2849 59.9224 21.6422Z" fill="#EBB376"/>
<path d="M62.229 30.5696C61.3577 30.1704 58.9153 27.3641 58.9153 27.3641L57.0673 28.7341C58.8883 29.8775 60.7926 31.1824 62.7406 32.6762C63.9748 32.9489 65.2255 33.1771 65.2255 33.1771L65.4772 31.4886C65.4772 31.4886 62.7171 30.8097 62.229 30.5696Z" fill="#EBB376"/>
<path d="M55.9431 24.4076C57.9621 24.2343 59.9459 28.3785 59.9459 28.3785L57.8632 30.3354C57.8632 30.3354 54.3897 28.5366 54.1325 26.5961C54.0322 25.9016 54.6986 24.5145 55.9431 24.4076Z" fill="#263238"/>
<path opacity="0.2" d="M55.9431 24.4076C54.6986 24.5145 54.0252 25.8864 54.1177 26.5906C54.1377 26.7499 54.1773 26.9061 54.2358 27.0557C55.6104 27.8354 57.0529 28.7161 58.5382 29.697L59.9529 28.3937C59.9529 28.3937 57.9621 24.2343 55.9431 24.4076Z" fill="black"/>
<path d="M60.2337 19.407C61.0295 18.6703 66.1321 20.9262 66.1321 20.9262C66.1321 20.9262 66.0706 18.4811 63.1318 17.0577C60.2741 15.677 58.1067 16.92 57.3527 18.5317C56.5987 20.1434 56.8003 22.4382 56.8003 22.4382C58.2301 24.6269 60.4584 26.1704 63.0101 26.7395L63.4755 25.9054C62.2968 25.5732 61.2083 24.9791 60.2911 24.1676C59.9629 23.8658 59.6998 23.5 59.5181 23.0928C59.3364 22.6856 59.2399 22.2456 59.2345 21.7997C59.2291 21.3538 59.315 20.9116 59.4868 20.5001C59.6586 20.0886 59.9128 19.7167 60.2337 19.407Z" fill="#407BFF"/>
<path d="M68.3398 37.3743L74.6047 37.9173L74.7998 35.6433L77.2768 35.859L71.7154 31.3771L62.8724 30.6525L61.9263 32.0665C64.1557 33.7221 66.2965 35.4938 68.3398 37.3743Z" fill="#263238"/>
<path opacity="0.4" d="M68.3398 37.3743L74.6047 37.9173L74.7998 35.6433L77.2768 35.859L71.7154 31.3771L62.8724 30.6525L61.9263 32.0665C64.1557 33.7221 66.2965 35.4938 68.3398 37.3743Z" fill="white"/>
</svg>
