<svg width="80" height="80" viewBox="0 0 80 80" fill="none" xmlns="http://www.w3.org/2000/svg">
<rect width="80" height="80" rx="40" fill="#D7DAFC"/>
<path d="M56.6666 36.6667V53.3333C56.6666 53.7754 56.491 54.1993 56.1784 54.5118C55.8659 54.8244 55.4419 55 54.9999 55H24.9999C24.5579 55 24.134 54.8244 23.8214 54.5118C23.5088 54.1993 23.3333 53.7754 23.3333 53.3333V36.6667H56.6666ZM56.6666 33.3333H23.3333V26.6667C23.3333 26.2246 23.5088 25.8007 23.8214 25.4882C24.134 25.1756 24.5579 25 24.9999 25H54.9999C55.4419 25 55.8659 25.1756 56.1784 25.4882C56.491 25.8007 56.6666 26.2246 56.6666 26.6667V33.3333ZM44.9999 46.6667V50H51.6666V46.6667H44.9999Z" fill="#284AB8"/>
</svg>
