<svg width="80" height="80" viewBox="0 0 80 80" fill="none" xmlns="http://www.w3.org/2000/svg">
<rect width="80" height="80" rx="40" fill="#D7DAFC"/>
<path d="M39.9999 56.6667C30.7949 56.6667 23.3333 49.205 23.3333 40C23.3333 30.795 30.7949 23.3333 39.9999 23.3333C49.2049 23.3333 56.6666 30.795 56.6666 40C56.6666 49.205 49.2049 56.6667 39.9999 56.6667ZM31.6666 40C31.6666 42.2101 32.5446 44.3298 34.1074 45.8926C35.6702 47.4554 37.7898 48.3333 39.9999 48.3333C42.2101 48.3333 44.3297 47.4554 45.8925 45.8926C47.4553 44.3298 48.3333 42.2101 48.3333 40H44.9999C44.9999 41.3261 44.4731 42.5979 43.5355 43.5355C42.5978 44.4732 41.326 45 39.9999 45C38.6738 45 37.4021 44.4732 36.4644 43.5355C35.5267 42.5979 34.9999 41.3261 34.9999 40H31.6666Z" fill="#284AB8"/>
</svg>
