<svg width="80" height="80" viewBox="0 0 80 80" fill="none" xmlns="http://www.w3.org/2000/svg">
<rect width="80" height="80" rx="40" fill="#D7DAFC"/>
<path d="M53.3334 53.3333C53.3334 53.7754 53.1578 54.1993 52.8453 54.5119C52.5327 54.8244 52.1088 55 51.6667 55H28.3334C27.8914 55 27.4675 54.8244 27.1549 54.5119C26.8423 54.1993 26.6667 53.7754 26.6667 53.3333V38.3333H21.6667L38.8784 22.6867C39.1853 22.4075 39.5852 22.2527 40.0001 22.2527C40.4149 22.2527 40.8149 22.4075 41.1217 22.6867L58.3334 38.3333H53.3334V53.3333ZM32.5001 41.6667C32.5001 43.6558 33.2903 45.5635 34.6968 46.97C36.1033 48.3765 38.011 49.1667 40.0001 49.1667C41.9892 49.1667 43.8969 48.3765 45.3034 46.97C46.7099 45.5635 47.5001 43.6558 47.5001 41.6667H44.1667C44.1667 42.7717 43.7278 43.8316 42.9464 44.613C42.165 45.3944 41.1052 45.8333 40.0001 45.8333C38.895 45.8333 37.8352 45.3944 37.0538 44.613C36.2724 43.8316 35.8334 42.7717 35.8334 41.6667H32.5001Z" fill="#284AB8"/>
</svg>
