<svg width="80" height="80" viewBox="0 0 80 80" fill="none" xmlns="http://www.w3.org/2000/svg">
<rect width="80" height="80" rx="40" fill="#D7DAFC"/>
<path d="M28.89 27.575C30.6012 26.0421 32.6111 24.88 34.7933 24.1617C35.4173 24.9434 36.2094 25.5744 37.1109 26.0078C38.0123 26.4412 38.9998 26.6658 40 26.665C41.0002 26.6658 41.9877 26.4412 42.8891 26.0078C43.7906 25.5744 44.5827 24.9434 45.2067 24.1617C47.3889 24.88 49.3988 26.0421 51.11 27.575C50.7458 28.5058 50.596 29.5066 50.6716 30.5032C50.7472 31.4998 51.0463 32.4665 51.5467 33.3317C52.046 34.1985 52.7343 34.9416 53.5604 35.5057C54.3866 36.0698 55.3292 36.4405 56.3183 36.59C56.7859 38.8382 56.7859 41.1585 56.3183 43.4067C54.385 43.7033 52.6017 44.84 51.5467 46.665C51.046 47.5304 50.7468 48.4974 50.6712 49.4943C50.5956 50.4912 50.7456 51.4924 51.11 52.4233C49.3986 53.9556 47.3887 55.1172 45.2067 55.835C44.5825 55.0536 43.7903 54.4229 42.8889 53.9898C41.9875 53.5567 41.0001 53.3323 40 53.3333C38.9998 53.3325 38.0123 53.5572 37.1109 53.9906C36.2094 54.424 35.4173 55.055 34.7933 55.8367C32.6113 55.1189 30.6014 53.9573 28.89 52.425C29.2544 51.494 29.4044 50.4929 29.3288 49.496C29.2532 48.4991 28.954 47.5321 28.4533 46.6667C27.9538 45.8002 27.2654 45.0574 26.4393 44.4936C25.6132 43.9298 24.6706 43.5594 23.6817 43.41C23.2139 41.1613 23.2139 38.8404 23.6817 36.5917C24.6708 36.4421 25.6134 36.0715 26.4396 35.5074C27.2657 34.9433 27.954 34.2002 28.4533 33.3333C28.9537 32.4682 29.2528 31.5014 29.3284 30.5048C29.404 29.5082 29.2542 28.5074 28.89 27.5767V27.575ZM42.5 44.3283C43.0732 44.0024 43.5763 43.5664 43.9803 43.0452C44.3843 42.5241 44.6813 41.9282 44.8541 41.2918C45.0268 40.6554 45.072 39.9912 44.987 39.3373C44.902 38.6834 44.6885 38.0528 44.3588 37.4817C44.0291 36.9107 43.5897 36.4105 43.0659 36.0099C42.5421 35.6094 41.9442 35.3164 41.3067 35.1479C40.6692 34.9793 40.0047 34.9385 39.3514 35.0279C38.6981 35.1172 38.0689 35.3349 37.5 35.6683C36.361 36.3361 35.5323 37.4273 35.1948 38.7038C34.8573 39.9802 35.0384 41.3384 35.6986 42.4818C36.3588 43.6253 37.4445 44.4612 38.7187 44.8071C39.9929 45.153 41.3522 44.9809 42.5 44.3283Z" fill="#284AB8"/>
</svg>
